<svg xmlns="http://www.w3.org/2000/svg" viewBox="0 0 500 500"><g id="freepik--Hearts--inject-33"><g id="freepik--hearts--inject-33"><g id="freepik--Heart--inject-33"><path d="M456.3,106.35a39.87,39.87,0,0,1-5.43-5.46c-2.36-2.93-4.45-6.23-3.71-10.51a7.09,7.09,0,0,1,2.72-4.47l.14-.12a7.42,7.42,0,0,1,5.67-1.47,6.9,6.9,0,0,1,6.14,4.53,6.8,6.8,0,0,1,7.27-2.3A7.52,7.52,0,0,1,474,89.83a7.32,7.32,0,0,1,1.19,5.22c-.7,4.3-3.74,6.74-6.92,8.74a39.84,39.84,0,0,1-6.89,3.4l-2.83,1.19Zm6.42-16.26-1.38,1.65-.76-2a5.44,5.44,0,0,0-5.06-3.94A6,6,0,0,0,451,86.9l-.13.11a5.8,5.8,0,0,0-2.25,3.62c-.63,3.7,1.26,6.67,3.4,9.32a38.36,38.36,0,0,0,5.25,5.28l1.59,1.42,2-.84a37.8,37.8,0,0,0,6.65-3.28c2.89-1.81,5.65-4,6.25-7.71a5.86,5.86,0,0,0-1-4.2,6,6,0,0,0-4-2.61l-.49-.1A5.36,5.36,0,0,0,462.72,90.09Z" style="fill:#e0e0e0"></path></g><g id="freepik--heart--inject-33"><path d="M474.09,356.9l-3-.77a40.86,40.86,0,0,1-7.3-2.38c-3.43-1.52-6.79-3.5-8.1-7.65a7.29,7.29,0,0,1,.43-5.34,7.42,7.42,0,0,1,4.39-3.95,6.84,6.84,0,0,1,7.53,1.22,6.91,6.91,0,0,1,5.42-5.36,7.47,7.47,0,0,1,5.83.64l.15.1a7.2,7.2,0,0,1,3.34,4c1.34,4.14-.25,7.7-2.17,10.94a39.77,39.77,0,0,1-4.58,6.18ZM461.53,338l-.47.16a6,6,0,0,0-3.57,3.17,5.84,5.84,0,0,0-.36,4.29c1.13,3.58,4.17,5.35,7.29,6.73a37.39,37.39,0,0,0,7.05,2.29l2.08.55,1.37-1.64a38.54,38.54,0,0,0,4.43-6c1.74-2.93,3.19-6.14,2-9.72a5.81,5.81,0,0,0-2.75-3.25l-.14-.1a6,6,0,0,0-4.64-.44,5.43,5.43,0,0,0-4.44,4.62l-.47,2.1-1.6-1.44A5.34,5.34,0,0,0,461.53,338Z" style="fill:#e0e0e0"></path></g><g id="freepik--heart--inject-33"><path d="M128.93,448.24a39.83,39.83,0,0,1-4.58-6.19c-1.92-3.23-3.51-6.8-2.17-10.93a7.13,7.13,0,0,1,3.34-4l.15-.11a7.46,7.46,0,0,1,5.83-.63,6.88,6.88,0,0,1,5.42,5.36,6.83,6.83,0,0,1,7.53-1.23,7.47,7.47,0,0,1,4.39,4,7.26,7.26,0,0,1,.43,5.33c-1.31,4.15-4.67,6.13-8.1,7.66a39.94,39.94,0,0,1-7.31,2.37l-3,.77Zm8.7-15.17L136,434.5l-.47-2.1a5.44,5.44,0,0,0-4.44-4.62,6,6,0,0,0-4.64.44l-.14.1a5.8,5.8,0,0,0-2.75,3.26c-1.15,3.57.3,6.78,2,9.71a38.87,38.87,0,0,0,4.44,6l1.37,1.63,2.08-.54a38.89,38.89,0,0,0,7.05-2.29c3.12-1.39,6.16-3.16,7.29-6.74a5.84,5.84,0,0,0-.36-4.29,6,6,0,0,0-3.57-3.17l-.47-.16A5.32,5.32,0,0,0,137.63,433.07Z" style="fill:#e0e0e0"></path></g><g id="freepik--heart--inject-33"><path d="M72.3,76.28a56,56,0,0,1-10.42-1.82C56.91,73,52,71,49.39,65.61a9.77,9.77,0,0,1-.49-7.17l.05-.25a10.3,10.3,0,0,1,5.2-6.14c4.67-2.53,8-1.33,10.47.22C64.92,49.39,66,46,71,43.93a10.24,10.24,0,0,1,8.12-.22,10,10,0,0,1,5.47,4.91c2.62,5.37,1.14,10.52-.84,15.29a54.85,54.85,0,0,1-5,9.27l-2.23,3.57ZM66.61,53l-.23,2.95-2.46-1.66c-2.21-1.5-4.83-2.59-8.79-.4a8.25,8.25,0,0,0-4.2,4.82l0,.24a7.93,7.93,0,0,0,.35,5.83c2.22,4.66,6.7,6.48,11.21,7.76A53.3,53.3,0,0,0,72.5,74.25l2.91.33L77,72.07a53.76,53.76,0,0,0,4.86-8.95c1.8-4.32,3.15-9,.89-13.6a8,8,0,0,0-4.41-3.93,8.26,8.26,0,0,0-6.55.22c-.22.09-.43.18-.63.28A7.37,7.37,0,0,0,66.61,53Z" style="fill:#e0e0e0"></path></g><g id="freepik--heart--inject-33"><path d="M71.37,392.4A55,55,0,0,1,61,390.58c-5-1.41-9.92-3.46-12.5-8.85a9.81,9.81,0,0,1-.48-7.17l.05-.24a10.25,10.25,0,0,1,5.2-6.15c4.67-2.52,8-1.33,10.47.22.3-2.87,1.39-6.24,6.34-8.34a10.26,10.26,0,0,1,8.11-.22,10,10,0,0,1,5.48,4.92c2.61,5.36,1.14,10.51-.84,15.28a55.65,55.65,0,0,1-5,9.27l-2.23,3.58Zm-5.68-23.33L65.46,372,63,370.37c-2.21-1.5-4.83-2.6-8.79-.41a8.21,8.21,0,0,0-4.2,4.83l0,.23a7.92,7.92,0,0,0,.34,5.83c2.23,4.66,6.71,6.48,11.21,7.76a52.79,52.79,0,0,0,10.06,1.76l2.91.33,1.57-2.51a52.57,52.57,0,0,0,4.85-8.95c1.8-4.32,3.16-9,.9-13.6a8.08,8.08,0,0,0-4.42-3.93,8.26,8.26,0,0,0-6.55.22l-.62.28C66.57,364,65.88,366.54,65.69,369.07Z" style="fill:#e0e0e0"></path></g><path d="M119.73,123.84a8,8,0,1,1,8-8A8,8,0,0,1,119.73,123.84Zm0-14.07a6,6,0,1,0,6,6A6,6,0,0,0,119.73,109.77Z" style="fill:#e0e0e0"></path><path d="M139.83,388.18a8,8,0,1,1,8-8A8,8,0,0,1,139.83,388.18Zm0-14.07a6,6,0,1,0,6,6A6,6,0,0,0,139.83,374.11Z" style="fill:#e0e0e0"></path><path d="M464.43,462.51a8,8,0,1,1,8-8A8,8,0,0,1,464.43,462.51Zm0-14.07a6,6,0,1,0,6,6A6,6,0,0,0,464.43,448.44Z" style="fill:#e0e0e0"></path><path d="M416.14,56.74a8,8,0,1,1,8-8A8,8,0,0,1,416.14,56.74Zm0-14.07a6,6,0,1,0,6,6A6,6,0,0,0,416.14,42.67Z" style="fill:#e0e0e0"></path><path d="M51,119.88a8,8,0,1,1,8-8A8,8,0,0,1,51,119.88Zm0-14.07a6,6,0,1,0,6,6A6,6,0,0,0,51,105.81Z" style="fill:#e0e0e0"></path><path d="M55,454.87a8,8,0,1,1,8-8A8,8,0,0,1,55,454.87Zm0-14.07a6,6,0,1,0,6,6A6,6,0,0,0,55,440.8Z" style="fill:#e0e0e0"></path><path d="M396.19,125.57a16.08,16.08,0,0,1-2.27-32,16.09,16.09,0,0,1,18.21,13.6h0a16.06,16.06,0,0,1-13.6,18.22A16.74,16.74,0,0,1,396.19,125.57Zm0-30.16a14.07,14.07,0,1,0,13.93,12.06h0A14.11,14.11,0,0,0,396.23,95.41Z" style="fill:#e0e0e0"></path></g></g><g id="freepik--donut-3--inject-33"><g id="freepik--Donut--inject-33"><path d="M484.1,204.3c-41.44-98.06-257.53-51.57-256.32,54.34C229.49,408.61,538.32,343.29,484.1,204.3ZM385.89,235c-14,12.66-39.95,18.15-57.79,11.54,14-13.79,40.72-19.6,59.15-12.84C386.81,234.11,386.36,234.55,385.89,235Z" style="fill:#ffbda7"></path><path d="M326.28,315.93a25.48,25.48,0,0,1,13.07-1.49c7.79,1.22,15.4,4.58,23.36,4.57,17.46,1.23,30.2-15.41,46.72-18.73,10-1.73,21-1.51,29.57-7.86,8.45-6.49,12.41-16.59,19.37-24.4,8.27-7.18,19.73-11.78,24.39-22.45,3.82-14.66-3.34-30.6-.5-45.26-.24-.48-.5-1-.76-1.5v0c-47.11-90.72-254.91-44-253.72,59.85,1.21,106.42,157.1,104.43,228.13,44.62-33.44,25.18-124.94,52-160.48,23.58a5.43,5.43,0,0,1,4.26-9.64C306.17,318.33,315.19,320.22,326.28,315.93ZM352,233.39q2-.55,4-1a66.45,66.45,0,0,1,8.12-1.26,59.8,59.8,0,0,1,14.5.36c1.1.17,2.18.37,3.24.61.62.14,1.23.29,1.84.45,1.21.32,2.39.7,3.55,1.12-.44.43-.89.87-1.36,1.3s-1.2,1-1.82,1.54l-.48.37c-.63.5-1.27,1-1.94,1.45h0c-.67.47-1.36.92-2.07,1.36l-.52.33q-2.15,1.31-4.45,2.45l-.58.28q-2.32,1.11-4.78,2.06l-.61.23c-.82.3-1.65.6-2.49.87h0c-.29.1-.58.18-.87.27a64.35,64.35,0,0,1-29.52,2.34l-.62-.1a43,43,0,0,1-7-1.92c.42-.41.84-.8,1.27-1.2l.44-.38c.29-.26.59-.52.9-.77l.53-.44.86-.68.58-.44.89-.64.6-.42.93-.62.6-.39,1.05-.65.52-.31,1.6-.91h0c.55-.3,1.1-.58,1.65-.86l.56-.27,1.14-.55.67-.3,1.08-.47.71-.3,1.08-.43.72-.28,1.12-.41.7-.25,1.23-.41.6-.19C350.77,233.75,351.38,233.56,352,233.39Z" style="opacity:0.1"></path><g id="freepik--Glazed--inject-33"><path d="M472.8,183.64a102,102,0,0,0-22.92-17.88h0a2,2,0,0,0-.37-.21c-.61-.38-1.25-.74-1.89-1.09s-1.53-.84-2.33-1.25l-2.18-1.11-.4-.18c-.77-.36-1.55-.74-2.34-1.08s-1.55-.68-2.33-1l-.43-.17-1.94-.77a5.59,5.59,0,0,0-.57-.22c-.75-.3-1.51-.58-2.28-.85-1.09-.39-2.21-.76-3.34-1.13C376.1,139.64,299.26,156.32,257.8,194c-1.34,1.22-2.64,2.46-3.88,3.7l-.85.87c-.49.48-1,1-1.44,1.5l-1,1.13-1.36,1.52a76.74,76.74,0,0,0-6.24,8c-3.72,5.52-14.75,20.12-16.1,41.24a17.45,17.45,0,0,0,.9,6.72h0c1.49,4.51,4.48,8.42,6.79,13.27,3.46,7.23,5.63,15.86,12.38,20.18,7.64,4.9,17.9,2.14,26.5,5,7.08,2.38,12.35,8.3,18.92,11.84A30.83,30.83,0,0,0,312.71,312c4.93-1,9.58-3.13,14.53-3.95,13.67-2.25,27.52,6,41.15,3.45C380.77,309.22,390,298.59,402,294.8c12.8-4.06,28.67-.48,38.41-9.72,5.65-5.34,7.52-13.72,12.95-19.29,6.68-6.84,17.72-8.42,23.57-16,6.14-8,4-13.69,4.81-23.73.49-6,1.73-9.91,2.48-16.27a19.89,19.89,0,0,0-.15-5.49C483,197.07,478.35,189.53,472.8,183.64ZM385.89,235c-13.51,12.29-38.6,17.74-56,12.16-.6-.19-1.19-.4-1.77-.62.43-.45.88-.89,1.35-1.31,13.54-12.28,38.61-17.73,56-12.17.61.2,1.2.41,1.78.64C386.81,234.11,386.36,234.55,385.89,235Z" style="fill:#FF84E8"></path><path d="M472.8,183.64a102,102,0,0,0-22.92-17.88h0a2,2,0,0,0-.37-.21c-.61-.38-1.25-.74-1.89-1.09s-1.53-.84-2.33-1.25l-2.18-1.11-.4-.18c-.77-.36-1.55-.74-2.34-1.08s-1.55-.68-2.33-1l-.43-.17-1.94-.77a5.59,5.59,0,0,0-.57-.22c-.75-.3-1.51-.58-2.28-.85-1.09-.39-2.21-.76-3.34-1.13C376.1,139.64,299.26,156.32,257.8,194c-1.34,1.22-2.64,2.46-3.88,3.7l-.85.87c-.49.48-1,1-1.44,1.5l-1,1.13-1.36,1.52a76.74,76.74,0,0,0-6.24,8c-3.72,5.52-14.75,20.12-16.1,41.24a17.45,17.45,0,0,0,.9,6.72h0c1.49,4.51,4.48,8.42,6.79,13.27,3.46,7.23,5.63,15.86,12.38,20.18,7.64,4.9,17.9,2.14,26.5,5,7.08,2.38,12.35,8.3,18.92,11.84A30.83,30.83,0,0,0,312.71,312c4.93-1,9.58-3.13,14.53-3.95,13.67-2.25,27.52,6,41.15,3.45C380.77,309.22,390,298.59,402,294.8c12.8-4.06,28.67-.48,38.41-9.72,5.65-5.34,7.52-13.72,12.95-19.29,6.68-6.84,17.72-8.42,23.57-16,6.14-8,4-13.69,4.81-23.73.49-6,1.73-9.91,2.48-16.27a19.89,19.89,0,0,0-.15-5.49C483,197.07,478.35,189.53,472.8,183.64ZM385.89,235c-13.51,12.29-38.6,17.74-56,12.16-.6-.19-1.19-.4-1.77-.62.43-.45.88-.89,1.35-1.31,13.54-12.28,38.61-17.73,56-12.17.61.2,1.2.41,1.78.64C386.81,234.11,386.36,234.55,385.89,235Z" style="fill:#fff;opacity:0.4"></path><path d="M387.25,233.68c-.58-.23-1.17-.44-1.78-.64-17.41-5.56-42.48-.11-56,12.17-.47.42-.92.86-1.35,1.31-15.82-6-18.29-19.85-5.25-31.72,13.54-12.28,38.61-17.73,56-12.16C395.68,208,399.19,221.69,387.25,233.68Z" style="fill:#FF84E8;opacity:0.45"></path><path d="M402.88,222.26c-3.64,8.11-9.92,15-17.28,20.34a68.24,68.24,0,0,1-52.11,11.32c-8.9-1.77-17.48-5.47-24.15-11.35a112,112,0,0,0,25,3.56,103.34,103.34,0,0,0,47.19-10.23A111.13,111.13,0,0,0,402.88,222.26Z" style="fill:#FF84E8"></path><g style="opacity:0.15"><path d="M402.88,222.26c-3.64,8.11-9.92,15-17.28,20.34a68.24,68.24,0,0,1-52.11,11.32c-8.9-1.77-17.48-5.47-24.15-11.35a112,112,0,0,0,25,3.56,103.34,103.34,0,0,0,47.19-10.23A111.13,111.13,0,0,0,402.88,222.26Z" style="fill:#fff"></path></g><path d="M470.42,250.7c-8,3.33-17.21,4.17-23.89,9.65-6.34,5.2-9.43,13.91-16.5,18.09-9.28,5.49-21.38,1-31.79,3.87-10,2.73-17.57,11.95-27.83,13.12-9.56,1.08-18.5-5.18-28.11-5.71-12-.66-24.41,7.61-35.44,2.82-4.56-2-7.95-5.9-12-8.78-11.31-8.07-27.38-7.85-37.64-17.21-8.46-7.73-10.82-20.25-9.88-31.66,1.74-21.19,13.12-40.23,28.86-54.85A136.37,136.37,0,0,0,257.8,194c-1.34,1.22-2.64,2.46-3.88,3.7l-.85.87c-.49.48-1,1-1.44,1.5l-1,1.13-1.36,1.52a76.74,76.74,0,0,0-6.24,8c-3.72,5.52-14.75,20.12-16.1,41.24a17.45,17.45,0,0,0,.9,6.72h0c1.49,4.51,4.48,8.42,6.79,13.27,3.46,7.23,5.63,15.86,12.38,20.18,7.64,4.9,17.9,2.14,26.5,5,7.08,2.38,12.35,8.3,18.92,11.84A30.83,30.83,0,0,0,312.71,312c4.93-1,9.58-3.13,14.53-3.95,13.67-2.25,27.52,6,41.15,3.45C380.77,309.22,390,298.59,402,294.8c12.8-4.06,28.67-.48,38.41-9.72,5.65-5.34,7.52-13.72,12.95-19.29,6.68-6.84,17.72-8.42,23.57-16a20.61,20.61,0,0,0,3.73-7.26A24.14,24.14,0,0,1,470.42,250.7Z" style="fill:#FF84E8;opacity:0.45"></path><path d="M419.4,213.05c-.86,13.61-11.59,23.83-22.11,31.2-9,6.9-20.41,10.08-31.39,12.36s-16.77,2.83-30.33,1.86c-3.55-.25-6.51-1.12-7.8,1.49-3,6,10.51,10.47,17.87,12.55a72.93,72.93,0,0,1,7.86,2.71c4.55,1.86,9.17,3.57,14.18,3.73,6.51.6,12.86-1.1,19.07-2.8a94.16,94.16,0,0,1,13.77-2c2.79-.22,5.6-.27,8.4-.22,12.64.18,16.31-1.8,22.5-7.67a87.4,87.4,0,0,1,24.71-16.24c5.53-2.47,10.64-5.45,13.51-11a23.63,23.63,0,0,0,2-6.86A105.59,105.59,0,0,1,475.27,217c5.27-16.9-3-30-18-40.7-16.81-12.44-37.32-18.73-58.05-20-12.89-1.28-26.67-1.58-37.9,4.88-12.52,7.48-3.24,15.83,6.89,18.23,10.89,3.28,22.51,4.41,32.77,9.59C410,193.74,419.8,201.94,419.4,213.05Z" style="fill:#fff;opacity:0.1"></path><path d="M427.92,166.45c-8.31-2.43-23.87-4.1-26.28,5.24-2.06,8,20.21,12.88,25.39,15.29,8.25,4,16.55,9.62,20.68,18.09,2.29,6.61,0,9.08,2.39,15,2,5-.33,10.26-3.05,11.88A37.63,37.63,0,0,0,436.41,241a9.87,9.87,0,0,0-2.29,8.35c.39,3,3.54,4.8,5.51,1.78a32.55,32.55,0,0,1,13.88-9.52c10.43-2.11,11.84-10,12.26-19.27a35.37,35.37,0,0,1,1.48-9.2c.85-2.44,2.22-4.74,2.56-7.3.66-4.45-.94-9.8-4.67-15.74-3.93-6.26-10-10.71-16.22-14.45A76,76,0,0,0,427.92,166.45Z" style="fill:#fff;opacity:0.2"></path><path d="M440,181.43c-.5,4.26-6.6,3.77-14.78.08s-15.16-5.94-13.39-9.86,10.83-3.3,19,.39S440.19,179.4,440,181.43Z" style="fill:#fff;opacity:0.4"></path><path d="M442.25,185.06a3.53,3.53,0,1,1,4.28,3.06A3.72,3.72,0,0,1,442.25,185.06Z" style="fill:#fff;opacity:0.4"></path></g><g id="freepik--Sparks--inject-33"><g style="opacity:0.1"><path d="M255.48,254a1.78,1.78,0,0,1-2.06-2.59l5.76-10.13a1.78,1.78,0,1,1,3.1,1.76l-5.76,10.13A1.74,1.74,0,0,1,255.48,254Z"></path><path d="M269.16,294.51a1.76,1.76,0,0,1-.4.07,1.78,1.78,0,0,1-1.89-1.67l-.68-11.63a1.78,1.78,0,1,1,3.56-.21l.68,11.63A1.78,1.78,0,0,1,269.16,294.51Z"></path><path d="M300,305.74a1.86,1.86,0,0,1-.41.08,1.79,1.79,0,0,1-1.88-1.68L297,292.51a1.81,1.81,0,0,1,1.68-1.88,1.77,1.77,0,0,1,1.88,1.67l.69,11.63A1.79,1.79,0,0,1,300,305.74Z"></path><path d="M400.66,252a1.82,1.82,0,0,1-.52.08,1.79,1.79,0,0,1-1.77-1.8l.1-11.65a1.79,1.79,0,0,1,3.57,0l-.11,11.65A1.76,1.76,0,0,1,400.66,252Z"></path><path d="M271.15,269.37a1.78,1.78,0,0,1-2-2.59l5.75-10.13a1.78,1.78,0,1,1,3.1,1.76l-5.76,10.13A1.78,1.78,0,0,1,271.15,269.37Z"></path><path d="M276.74,271.92a1.78,1.78,0,0,1-1.37-3.27l10.22-5.6a1.79,1.79,0,0,1,1.72,3.13l-10.22,5.59A2.63,2.63,0,0,1,276.74,271.92Z"></path><path d="M295.68,257.6a1.78,1.78,0,0,1-1.27-3.31l10.52-5a1.78,1.78,0,1,1,1.53,3.22l-10.52,5A1.17,1.17,0,0,1,295.68,257.6Z"></path><path d="M312.32,186.91a1.78,1.78,0,0,1-.86,0L300,184.64a1.79,1.79,0,0,1,.71-3.5l11.42,2.32a1.78,1.78,0,0,1,.15,3.45Z"></path><path d="M355.39,210.34a1.79,1.79,0,0,1-1.86-.55L345.94,201a1.78,1.78,0,0,1,2.7-2.32l7.59,8.84A1.77,1.77,0,0,1,356,210,1.74,1.74,0,0,1,355.39,210.34Z"></path><path d="M369.82,206.46a1.78,1.78,0,0,1-2.06-2.59l5.72-10.15a1.79,1.79,0,0,1,3.11,1.76l-5.73,10.14A1.76,1.76,0,0,1,369.82,206.46Z"></path><path d="M416.35,281.91a1.75,1.75,0,0,1-1.25-.09,1.78,1.78,0,0,1-.87-2.36l4.89-10.58a1.78,1.78,0,0,1,3.23,1.49L417.47,281A1.77,1.77,0,0,1,416.35,281.91Z"></path><path d="M426.06,208.9a1.78,1.78,0,0,1-2.13-2.46l4.89-10.57a1.78,1.78,0,0,1,3.23,1.49l-4.88,10.58A1.81,1.81,0,0,1,426.06,208.9Z"></path><path d="M456.18,217.58a1.78,1.78,0,0,1-1.11-3.38l10.94-4a1.78,1.78,0,0,1,1.23,3.35l-10.95,4Z"></path><path d="M235.47,263.73a1.78,1.78,0,0,1-1.12-3.38l10.94-4a1.78,1.78,0,1,1,1.23,3.34l-11,4Z"></path><path d="M430.94,177.55a1.78,1.78,0,0,1-1.12-3.38l10.95-4a1.79,1.79,0,0,1,2.28,1.06,1.77,1.77,0,0,1-1.06,2.28l-10.94,4Z"></path><path d="M392.91,264.06a1.79,1.79,0,0,1-1.86-.55l-7.59-8.84a1.78,1.78,0,1,1,2.7-2.32l7.59,8.84a1.77,1.77,0,0,1-.19,2.51A1.74,1.74,0,0,1,392.91,264.06Z"></path><path d="M424,234.28a1.77,1.77,0,0,1-1.86-.54l-7.59-8.84a1.78,1.78,0,0,1,2.7-2.32l7.59,8.83a1.78,1.78,0,0,1-.19,2.52A1.59,1.59,0,0,1,424,234.28Z"></path><path d="M316.81,259.28a1.75,1.75,0,0,1-1.86-.53,1.79,1.79,0,0,1,.83-2.88l11.14-3.43a1.75,1.75,0,0,1,2.23,1.18,1.79,1.79,0,0,1-1.18,2.23l-11.14,3.42Z"></path><path d="M298.56,242.26a1.91,1.91,0,0,1-.59.07l-11.64-.49a1.78,1.78,0,0,1,.15-3.56l11.64.49a1.78,1.78,0,0,1,.44,3.49Z"></path><path d="M351.19,285.84a1.78,1.78,0,0,1-2.06-2.59l5.76-10.13a1.78,1.78,0,1,1,3.1,1.76L352.23,285A1.84,1.84,0,0,1,351.19,285.84Z"></path><path d="M356.75,307.1a1.73,1.73,0,0,1-.31.07,1.79,1.79,0,0,1-2-1.58L353.19,294a1.78,1.78,0,1,1,3.54-.39L358,305.2A1.77,1.77,0,0,1,356.75,307.1Z"></path><path d="M451.1,204.6a1.74,1.74,0,0,1-1.32-.12l-10.36-5.34a1.78,1.78,0,0,1,1.63-3.17l10.36,5.34a1.78,1.78,0,0,1,.77,2.4A1.76,1.76,0,0,1,451.1,204.6Z"></path><path d="M337.52,305.7a1.8,1.8,0,0,1-1.9-.6L328.36,296a1.78,1.78,0,1,1,2.79-2.22l7.26,9.12a1.77,1.77,0,0,1-.29,2.5A1.74,1.74,0,0,1,337.52,305.7Z"></path><path d="M434.66,265.62a1.77,1.77,0,0,1-1.33-.12L423,260.16a1.78,1.78,0,0,1,1.63-3.17L435,262.33a1.78,1.78,0,0,1,.76,2.4A1.74,1.74,0,0,1,434.66,265.62Z"></path><path d="M407.12,191.72a1.74,1.74,0,0,1-1.32-.12l-10.36-5.34a1.78,1.78,0,0,1,1.63-3.17l10.36,5.34a1.78,1.78,0,0,1,.77,2.4A1.76,1.76,0,0,1,407.12,191.72Z"></path><path d="M446.75,231.73a1.75,1.75,0,0,1-1.32-.13l-10.36-5.33a1.78,1.78,0,0,1,1.63-3.17l10.36,5.34a1.78,1.78,0,0,1-.31,3.29Z"></path><path d="M462.18,189.07a1.74,1.74,0,0,1-1.32-.12l-10.35-5.34a1.78,1.78,0,0,1,1.63-3.17l10.35,5.34a1.78,1.78,0,0,1,.77,2.4A1.76,1.76,0,0,1,462.18,189.07Z"></path><path d="M403.43,176.4a1.78,1.78,0,0,1-1.8-2.94l8-8.43a1.78,1.78,0,1,1,2.58,2.45l-8,8.44A1.7,1.7,0,0,1,403.43,176.4Z"></path><path d="M327.4,203.09a1.78,1.78,0,0,1-1.39-3.26l10.1-5.79a1.78,1.78,0,1,1,1.78,3.09l-10.11,5.79A1.84,1.84,0,0,1,327.4,203.09Z"></path><path d="M276.73,227.91a1.78,1.78,0,0,1-1.39-3.25l10.11-5.8a1.79,1.79,0,0,1,2.43.66,1.77,1.77,0,0,1-.66,2.43l-10.11,5.8A1.4,1.4,0,0,1,276.73,227.91Z"></path><path d="M379.82,294.27a1.82,1.82,0,0,1-1.33-.13l-10.36-5.34a1.78,1.78,0,0,1,1.64-3.17L380.13,291a1.78,1.78,0,0,1-.31,3.29Z"></path><path d="M339.67,284.73a1.7,1.7,0,0,1-1.32-.13L328,279.27a1.78,1.78,0,1,1,1.63-3.17L340,281.44a1.77,1.77,0,0,1,.76,2.4A1.74,1.74,0,0,1,339.67,284.73Z"></path><path d="M413.94,252.8a1.78,1.78,0,0,1-2.09-2.54L417.28,240a1.78,1.78,0,1,1,3.15,1.66L415,251.92A1.81,1.81,0,0,1,413.94,252.8Z"></path><path d="M314.12,303.07a1.75,1.75,0,0,1-1.34-.13,1.78,1.78,0,0,1-.74-2.41l5.42-10.31a1.78,1.78,0,0,1,3.15,1.66l-5.42,10.31A1.75,1.75,0,0,1,314.12,303.07Z"></path><path d="M382.81,175.83a1.78,1.78,0,0,1-2.09-2.54L386.15,163a1.78,1.78,0,1,1,3.15,1.66L383.88,175A1.81,1.81,0,0,1,382.81,175.83Z"></path><path d="M362.67,190a1.83,1.83,0,0,1-1.42-.18,1.79,1.79,0,0,1-.61-2.45l6-10a1.78,1.78,0,1,1,3.06,1.83l-6,10A1.79,1.79,0,0,1,362.67,190Z"></path><path d="M418.5,216.6l-.33.06-11.59,1.19a1.78,1.78,0,1,1-.36-3.55l11.59-1.18a1.78,1.78,0,0,1,.69,3.48Z"></path><path d="M343.21,170.52a1.78,1.78,0,0,1-1.16-.05l-10.85-4.23a1.78,1.78,0,0,1,1.3-3.32l10.85,4.23a1.78,1.78,0,0,1-.14,3.37Z"></path><path d="M374.77,256.93a1.81,1.81,0,0,1-1.49-.22l-9.72-6.42a1.78,1.78,0,0,1,2-3l9.73,6.42a1.78,1.78,0,0,1,.5,2.47A1.82,1.82,0,0,1,374.77,256.93Z"></path><path d="M371.38,277.28a1.74,1.74,0,0,1-.88,0,1.77,1.77,0,0,1-1.36-2.12l2.5-11.39a1.78,1.78,0,0,1,3.48.77L372.62,276A1.8,1.8,0,0,1,371.38,277.28Z"></path><path d="M412.21,271.48a1.84,1.84,0,0,1-1,0L400.05,268a1.78,1.78,0,0,1,1.07-3.4l11.12,3.48a1.78,1.78,0,0,1,1.17,2.23A1.81,1.81,0,0,1,412.21,271.48Z"></path><path d="M307.52,198.72a1.84,1.84,0,0,1-1,0l-11.12-3.48a1.78,1.78,0,0,1,1.07-3.4l11.12,3.48a1.78,1.78,0,0,1,1.17,2.23A1.81,1.81,0,0,1,307.52,198.72Z"></path><path d="M475.41,204.26a1.76,1.76,0,0,1-1,0l-11.12-3.47a1.78,1.78,0,1,1,1.07-3.4l11.12,3.47a1.78,1.78,0,0,1,0,3.41Z"></path><path d="M413.57,202.82a1.72,1.72,0,0,1-1,0l-11.13-3.47a1.79,1.79,0,0,1,1.07-3.41l11.12,3.48a1.78,1.78,0,0,1,0,3.41Z"></path><path d="M338.72,174.76l-.24.05L327,176.6a1.78,1.78,0,1,1-.55-3.52l11.51-1.79a1.78,1.78,0,0,1,.79,3.47Z"></path><path d="M394,288.64a1.84,1.84,0,0,1-1.09,0,1.78,1.78,0,0,1-1.1-2.27l3.79-11A1.78,1.78,0,0,1,399,276.5l-3.79,11A1.79,1.79,0,0,1,394,288.64Z"></path><path d="M247.28,280.68a1.74,1.74,0,0,1-1.08,0,1.78,1.78,0,0,1-1.11-2.26l3.79-11a1.78,1.78,0,0,1,3.37,1.16l-3.79,11A1.77,1.77,0,0,1,247.28,280.68Z"></path><path d="M286,299.44a1.74,1.74,0,0,1-1.08,0,1.78,1.78,0,0,1-1.11-2.26l3.79-11a1.8,1.8,0,0,1,2.27-1.11,1.78,1.78,0,0,1,1.1,2.27l-3.79,11A1.78,1.78,0,0,1,286,299.44Z"></path><path d="M387.75,212.76a1.74,1.74,0,0,1-1.08,0,1.77,1.77,0,0,1-1.11-2.26l3.79-11a1.78,1.78,0,1,1,3.37,1.16l-3.79,11A1.82,1.82,0,0,1,387.75,212.76Z"></path><path d="M451.51,249.65a1.3,1.3,0,0,1-.33.07l-11.59,1.19a1.78,1.78,0,0,1-1.95-1.6,1.76,1.76,0,0,1,1.59-1.95l11.59-1.19a1.78,1.78,0,0,1,.69,3.48Z"></path><path d="M458.47,237.5a1.78,1.78,0,0,1-1.34-3.28l10.29-5.47a1.78,1.78,0,1,1,1.67,3.15l-10.29,5.47A1.51,1.51,0,0,1,458.47,237.5Z"></path><path d="M417.59,183.17a1.78,1.78,0,0,1-1.34-3.28l10.29-5.47a1.78,1.78,0,1,1,1.67,3.14L417.92,183A2.33,2.33,0,0,1,417.59,183.17Z"></path><path d="M357.75,175.82a1.77,1.77,0,0,1-2.26-2l2.07-11.47a1.78,1.78,0,1,1,3.51.64L359,174.43A1.76,1.76,0,0,1,357.75,175.82Z"></path><path d="M328.71,216.44a1.3,1.3,0,0,1-.33.07l-11.59,1.19a1.78,1.78,0,0,1-.36-3.55L328,213a1.78,1.78,0,0,1,.69,3.48Z"></path><path d="M242.25,241.18a1.78,1.78,0,0,1-1.75-3l8.36-8.11a1.78,1.78,0,0,1,2.48,2.56L243,240.75A1.77,1.77,0,0,1,242.25,241.18Z"></path><path d="M343.62,263.38a1.81,1.81,0,0,1-1.29-.11,1.77,1.77,0,0,1-.82-2.38l5.07-10.49a1.78,1.78,0,1,1,3.2,1.56l-5.07,10.48A1.77,1.77,0,0,1,343.62,263.38Z"></path><path d="M258.16,221.16a1.78,1.78,0,0,1-1.4-3.25l10.07-5.86a1.78,1.78,0,1,1,1.79,3.08L258.55,221A1.71,1.71,0,0,1,258.16,221.16Z"></path><path d="M315.9,274.17a1.61,1.61,0,0,1-.33.06L304,275.42a1.78,1.78,0,0,1-.36-3.55l11.59-1.18a1.78,1.78,0,0,1,.69,3.48Z"></path><path d="M309,227.27a1.8,1.8,0,0,1-1.32-.13l-10.36-5.34a1.78,1.78,0,1,1,1.63-3.17L309.33,224a1.79,1.79,0,0,1,.77,2.41A1.83,1.83,0,0,1,309,227.27Z"></path><path d="M282.89,204.74a1.75,1.75,0,0,1-1.32-.13l-10.36-5.33a1.78,1.78,0,1,1,1.63-3.17l10.36,5.34a1.78,1.78,0,0,1-.31,3.29Z"></path></g><path d="M298,288.4a1.81,1.81,0,0,0-1.68,1.88l.68,11.64a1.79,1.79,0,0,0,1.89,1.67,1.78,1.78,0,0,0,1.67-1.88l-.68-11.64A1.78,1.78,0,0,0,298,288.4Zm-10.66-26.87a1.79,1.79,0,0,0-2.42-.71l-10.22,5.6a1.78,1.78,0,0,0,1.36,3.27,1.51,1.51,0,0,0,.35-.14l10.22-5.6A1.78,1.78,0,0,0,287.35,261.53Zm58.12-65.32a1.77,1.77,0,0,0-.19,2.51l7.59,8.84a1.77,1.77,0,0,0,1.86.55,1.74,1.74,0,0,0,.65-.36,1.78,1.78,0,0,0,.19-2.51L348,196.4A1.78,1.78,0,0,0,345.47,196.21Zm27.35-4.71-5.73,10.15a1.78,1.78,0,0,0,.68,2.42,1.78,1.78,0,0,0,2.43-.67l5.73-10.15a1.78,1.78,0,1,0-3.11-1.75Zm45.63,75.15-4.88,10.58a1.78,1.78,0,0,0,.87,2.37,1.81,1.81,0,0,0,1.25.09,1.78,1.78,0,0,0,1.11-1l4.89-10.58a1.78,1.78,0,0,0-3.24-1.49Zm9.71-73-4.89,10.58a1.77,1.77,0,0,0,.87,2.36,1.75,1.75,0,0,0,1.25.09,1.73,1.73,0,0,0,1.11-1l4.89-10.57a1.78,1.78,0,1,0-3.23-1.5ZM465.35,208l-11,4a1.79,1.79,0,0,0,1.12,3.39l.11,0,10.94-4a1.78,1.78,0,1,0-1.22-3.35ZM244.63,254.12l-10.95,4a1.78,1.78,0,0,0,1.12,3.38l.11,0,10.94-4a1.78,1.78,0,1,0-1.22-3.35ZM442.39,169a1.81,1.81,0,0,0-2.29-1.06l-10.94,4a1.78,1.78,0,0,0,1.12,3.38l.11,0,10.94-4A1.79,1.79,0,0,0,442.39,169ZM385.5,250.12a1.79,1.79,0,0,0-2.51-.19,1.77,1.77,0,0,0-.19,2.51l7.59,8.84a1.79,1.79,0,0,0,1.86.55,1.82,1.82,0,0,0,.65-.36,1.78,1.78,0,0,0,.19-2.51Zm31.09-29.77a1.78,1.78,0,0,0-2.71,2.32l7.6,8.84a1.79,1.79,0,0,0,1.86.55,1.74,1.74,0,0,0,.65-.36,1.78,1.78,0,0,0,.19-2.51Zm-81.14-28.54-10.11,5.79a1.79,1.79,0,0,0,1.78,3.1l10.11-5.8a1.78,1.78,0,0,0-1.78-3.09Zm-50.66,24.82-10.11,5.8a1.78,1.78,0,0,0,1.39,3.26,1.84,1.84,0,0,0,.38-.17l10.11-5.79a1.78,1.78,0,0,0-1.77-3.1Zm84.31,66.78a1.78,1.78,0,0,0-1.63,3.16l10.36,5.34a1.7,1.7,0,0,0,1.32.13,1.78,1.78,0,0,0,.31-3.29ZM329,273.87a1.78,1.78,0,1,0-1.63,3.17l10.35,5.34a1.77,1.77,0,0,0,1.33.12,1.74,1.74,0,0,0,1.07-.89,1.78,1.78,0,0,0-.76-2.4ZM342.54,168.3a1.82,1.82,0,0,0,1.16-1.06,1.78,1.78,0,0,0-1-2.31l-10.85-4.24a1.78,1.78,0,1,0-1.29,3.32l10.85,4.24A1.82,1.82,0,0,0,342.54,168.3Z" style="fill:#455a64"></path><path d="M261,238.42a1.78,1.78,0,0,0-2.43.66l-5.76,10.13a1.79,1.79,0,0,0,.67,2.43,1.75,1.75,0,0,0,1.39.16,1.79,1.79,0,0,0,1-.82l5.76-10.13A1.77,1.77,0,0,0,261,238.42Zm13.24,16-5.76,10.13a1.78,1.78,0,0,0,2.06,2.59,1.74,1.74,0,0,0,1-.83l5.76-10.13a1.78,1.78,0,1,0-3.1-1.76Zm52.07-4.21-11.14,3.43a1.79,1.79,0,0,0-.83,2.88,1.74,1.74,0,0,0,1.86.53h0l11.13-3.43a1.79,1.79,0,0,0,1.18-2.23A1.75,1.75,0,0,0,326.26,250.21Zm28,20.68L348.47,281a1.78,1.78,0,0,0,2.06,2.59,1.8,1.8,0,0,0,1-.83l5.75-10.13a1.78,1.78,0,1,0-3.09-1.76Zm62.38-33.17L411.19,248a1.78,1.78,0,0,0,.75,2.41,1.78,1.78,0,0,0,2.4-.75l5.43-10.31a1.78,1.78,0,0,0-3.16-1.66ZM316.8,288l-5.43,10.31a1.79,1.79,0,0,0,.75,2.41,1.85,1.85,0,0,0,1.34.13,1.82,1.82,0,0,0,1.07-.88L320,289.66A1.78,1.78,0,1,0,316.8,288Zm65.34-114.4a1.73,1.73,0,0,0,1.07-.88l5.43-10.31a1.78,1.78,0,0,0-3.15-1.66l-5.43,10.31a1.79,1.79,0,0,0,.75,2.41A1.73,1.73,0,0,0,382.14,173.6Zm29.44,92.24-11.12-3.47a1.77,1.77,0,0,0-2.24,1.16,1.8,1.8,0,0,0,1.17,2.24l11.12,3.47a1.78,1.78,0,0,0,1.07-3.4ZM306.86,196.49a1.79,1.79,0,0,0,0-3.41l-11.12-3.48A1.79,1.79,0,1,0,294.7,193l11.12,3.47A1.76,1.76,0,0,0,306.86,196.49Zm167.92,2.13-11.13-3.47a1.78,1.78,0,1,0-1.06,3.4L473.71,202a1.8,1.8,0,0,0,2.23-1.17A1.79,1.79,0,0,0,474.78,198.62Zm-61.84-1.44-11.12-3.47a1.78,1.78,0,1,0-1.07,3.4l11.12,3.47a1.76,1.76,0,0,0,1,0,1.78,1.78,0,0,0,0-3.41Zm-75.67-28.12-11.52,1.79a1.78,1.78,0,0,0,.55,3.52l11.52-1.79.23-.05a1.78,1.78,0,0,0-.78-3.47Z" style="fill:#FF84E8"></path><path d="M261,238.42a1.78,1.78,0,0,0-2.43.66l-5.76,10.13a1.79,1.79,0,0,0,.67,2.43,1.75,1.75,0,0,0,1.39.16,1.79,1.79,0,0,0,1-.82l5.76-10.13A1.77,1.77,0,0,0,261,238.42Zm13.24,16-5.76,10.13a1.78,1.78,0,0,0,2.06,2.59,1.74,1.74,0,0,0,1-.83l5.76-10.13a1.78,1.78,0,1,0-3.1-1.76Zm52.07-4.21-11.14,3.43a1.79,1.79,0,0,0-.83,2.88,1.74,1.74,0,0,0,1.86.53h0l11.13-3.43a1.79,1.79,0,0,0,1.18-2.23A1.75,1.75,0,0,0,326.26,250.21Zm28,20.68L348.47,281a1.78,1.78,0,0,0,2.06,2.59,1.8,1.8,0,0,0,1-.83l5.75-10.13a1.78,1.78,0,1,0-3.09-1.76Zm62.38-33.17L411.19,248a1.78,1.78,0,0,0,.75,2.41,1.78,1.78,0,0,0,2.4-.75l5.43-10.31a1.78,1.78,0,0,0-3.16-1.66ZM316.8,288l-5.43,10.31a1.79,1.79,0,0,0,.75,2.41,1.85,1.85,0,0,0,1.34.13,1.82,1.82,0,0,0,1.07-.88L320,289.66A1.78,1.78,0,1,0,316.8,288Zm65.34-114.4a1.73,1.73,0,0,0,1.07-.88l5.43-10.31a1.78,1.78,0,0,0-3.15-1.66l-5.43,10.31a1.79,1.79,0,0,0,.75,2.41A1.73,1.73,0,0,0,382.14,173.6Zm29.44,92.24-11.12-3.47a1.77,1.77,0,0,0-2.24,1.16,1.8,1.8,0,0,0,1.17,2.24l11.12,3.47a1.78,1.78,0,0,0,1.07-3.4ZM306.86,196.49a1.79,1.79,0,0,0,0-3.41l-11.12-3.48A1.79,1.79,0,1,0,294.7,193l11.12,3.47A1.76,1.76,0,0,0,306.86,196.49Zm167.92,2.13-11.13-3.47a1.78,1.78,0,1,0-1.06,3.4L473.71,202a1.8,1.8,0,0,0,2.23-1.17A1.79,1.79,0,0,0,474.78,198.62Zm-61.84-1.44-11.12-3.47a1.78,1.78,0,1,0-1.07,3.4l11.12,3.47a1.76,1.76,0,0,0,1,0,1.78,1.78,0,0,0,0-3.41Zm-75.67-28.12-11.52,1.79a1.78,1.78,0,0,0,.55,3.52l11.52-1.79.23-.05a1.78,1.78,0,0,0-.78-3.47Z" style="opacity:0.30000000000000004"></path><path d="M311.51,181.23l-11.42-2.32a1.79,1.79,0,1,0-.71,3.5l11.41,2.31a1.77,1.77,0,0,0,2.11-1.39A1.79,1.79,0,0,0,311.51,181.23ZM297.89,240a1.78,1.78,0,0,0-.43-3.49l-11.64-.49a1.78,1.78,0,1,0-.15,3.56l11.64.49A1.6,1.6,0,0,0,297.89,240Zm56.21,49.79a1.79,1.79,0,0,0-1.58,2l1.29,11.59a1.78,1.78,0,0,0,2,1.57,1.7,1.7,0,0,0,.31-.06,1.78,1.78,0,0,0,1.26-1.91l-1.28-11.58A1.78,1.78,0,0,0,354.1,289.82Zm63-78.93-11.59,1.19a1.78,1.78,0,1,0,.36,3.54l11.6-1.18a1.94,1.94,0,0,0,.33-.07,1.78,1.78,0,0,0-.7-3.48Zm-52.28,34.2a1.78,1.78,0,1,0-2,3l9.72,6.42a1.8,1.8,0,0,0,1.49.22,1.78,1.78,0,0,0,.47-3.2ZM397.23,272a1.78,1.78,0,0,0-2.26,1.11l-3.8,11a1.79,1.79,0,0,0,1.11,2.27,1.67,1.67,0,0,0,1.08,0,1.74,1.74,0,0,0,1.18-1.12l3.79-11A1.78,1.78,0,0,0,397.23,272Zm-146.75-8a1.77,1.77,0,0,0-2.26,1.1l-3.79,11a1.78,1.78,0,0,0,1.11,2.27,1.79,1.79,0,0,0,2.26-1.11l3.79-11A1.78,1.78,0,0,0,250.48,264ZM289.2,282.8a1.79,1.79,0,0,0-2.27,1.1l-3.79,11a1.79,1.79,0,0,0,1.11,2.27,1.81,1.81,0,0,0,1.08,0,1.75,1.75,0,0,0,1.18-1.13l3.79-11A1.77,1.77,0,0,0,289.2,282.8ZM391,196.11a1.79,1.79,0,0,0-2.26,1.11l-3.79,11a1.79,1.79,0,0,0,2.19,2.29,1.82,1.82,0,0,0,1.18-1.13l3.79-11A1.79,1.79,0,0,0,391,196.11ZM450.16,244l-11.59,1.18a1.78,1.78,0,1,0,.36,3.55l11.59-1.19.33-.06a1.78,1.78,0,0,0-.69-3.48Zm19-16.69a1.8,1.8,0,0,0-2.41-.74L456.47,232a1.79,1.79,0,0,0,1.34,3.29,2.33,2.33,0,0,0,.33-.14l10.29-5.47A1.78,1.78,0,0,0,469.17,227.26Zm-40.89-54.33a1.79,1.79,0,0,0-2.41-.74l-10.28,5.47a1.78,1.78,0,0,0,1.34,3.28,2.26,2.26,0,0,0,.33-.13l10.28-5.47A1.78,1.78,0,0,0,428.28,172.93ZM359,158.67a1.79,1.79,0,0,0-2.08,1.44l-2.07,11.46a1.78,1.78,0,1,0,3.51.63l2.07-11.46A1.77,1.77,0,0,0,359,158.67ZM268.6,210.46a1.78,1.78,0,0,0-2.43-.64l-10.07,5.86a1.78,1.78,0,0,0,1.4,3.25,2.2,2.2,0,0,0,.39-.17L268,212.9A1.78,1.78,0,0,0,268.6,210.46Zm45.95,58L303,269.65a1.78,1.78,0,0,0,.36,3.54L314.91,272a1.94,1.94,0,0,0,.33-.07,1.78,1.78,0,0,0-.69-3.48Z" style="fill:#fafafa"></path><path d="M267.2,277.17a1.78,1.78,0,0,0-1.67,1.88l.68,11.63a1.79,1.79,0,0,0,1.88,1.68,1.86,1.86,0,0,0,.41-.08,1.78,1.78,0,0,0,1.27-1.81l-.68-11.63A1.79,1.79,0,0,0,267.2,277.17Zm132.41-42.56a1.79,1.79,0,0,0-1.8,1.77l-.1,11.65a1.78,1.78,0,0,0,1.76,1.8,1.83,1.83,0,0,0,.53-.07,1.79,1.79,0,0,0,1.27-1.7l.1-11.65A1.78,1.78,0,0,0,399.61,234.61Zm-95.34,12.44-10.52,5a1.78,1.78,0,0,0,1.27,3.32l.26-.1,10.52-5a1.78,1.78,0,1,0-1.53-3.22Zm136.12-53.3a1.78,1.78,0,1,0-1.63,3.16l10.36,5.34a1.8,1.8,0,0,0,1.32.13,1.82,1.82,0,0,0,1.08-.89,1.79,1.79,0,0,0-.77-2.4Zm-109.9,97.78a1.78,1.78,0,1,0-2.79,2.22l7.26,9.12a1.77,1.77,0,0,0,1.9.6,2,2,0,0,0,.6-.31,1.79,1.79,0,0,0,.29-2.51ZM424,254.77a1.78,1.78,0,1,0-1.63,3.16l10.35,5.34a1.82,1.82,0,0,0,1.33.13,1.78,1.78,0,0,0,1.07-.9,1.77,1.77,0,0,0-.77-2.39Zm-17.49-65.28a1.74,1.74,0,0,0,1.07-.89,1.78,1.78,0,0,0-.76-2.4l-10.36-5.34a1.78,1.78,0,0,0-1.63,3.17l10.36,5.34A1.74,1.74,0,0,0,406.46,189.49ZM436,220.87a1.78,1.78,0,0,0-1.63,3.17l10.36,5.34a1.79,1.79,0,0,0,2.4-.77,1.79,1.79,0,0,0-.77-2.4Zm25.79-37.32-10.35-5.34a1.78,1.78,0,0,0-1.64,3.17l10.36,5.34a1.79,1.79,0,0,0,2.4-.77A1.78,1.78,0,0,0,461.83,183.55ZM409,162.8l-8,8.44a1.78,1.78,0,0,0,1.8,2.93,1.71,1.71,0,0,0,.78-.47l8-8.44A1.78,1.78,0,1,0,409,162.8Zm-43,12.38-6,10a1.78,1.78,0,0,0,.62,2.44,1.75,1.75,0,0,0,1.42.18,1.77,1.77,0,0,0,1-.79l6-10a1.78,1.78,0,0,0-3.06-1.83Zm7.14,85a1.79,1.79,0,0,0-2.13,1.36L368.47,273a1.79,1.79,0,0,0,2.25,2.09,1.8,1.8,0,0,0,1.24-1.33l2.5-11.38A1.78,1.78,0,0,0,373.1,260.22Zm-45.05-46a1.78,1.78,0,0,0-.69-3.48l-11.59,1.18a1.78,1.78,0,1,0,.36,3.55l11.59-1.19Zm-77.33,13.67a1.78,1.78,0,0,0-2.52,0L239.83,236a1.78,1.78,0,0,0,1.76,3,1.83,1.83,0,0,0,.73-.43l8.36-8.11A1.78,1.78,0,0,0,250.72,227.89Zm95.19,20.29-5.07,10.49a1.78,1.78,0,0,0,3.21,1.55l5.07-10.49a1.78,1.78,0,1,0-3.21-1.55Zm-36.48-24a1.77,1.77,0,0,0-.76-2.4l-10.36-5.34a1.78,1.78,0,1,0-1.63,3.16L307,224.91a1.76,1.76,0,0,0,2.39-.76Zm-27.2-21.64a1.78,1.78,0,0,0,.31-3.29l-10.36-5.34a1.78,1.78,0,0,0-1.63,3.17l10.36,5.34A1.74,1.74,0,0,0,282.23,202.51Z" style="fill:#FF84E8"></path></g></g></g><g id="freepik--donut-2--inject-33"><g id="freepik--donut--inject-33"><path d="M438.1,379.64c-7.08-106.22-226.49-133-260-32.52C130.66,489.4,443.86,528.73,438.1,379.64ZM335.26,376.5c-17.42,7.37-43.69,4.08-58.39-8,17.71-8.46,44.9-5.2,60.09,7.22C336.41,376,335.84,376.25,335.26,376.5Z" style="fill:#ffbda7"></path><path d="M252.44,433.5a25.41,25.41,0,0,1,12.84,2.86c7,3.7,13.05,9.37,20.57,12,16.11,6.87,33.59-4.68,50.28-2.41,10.06,1.65,20.3,5.43,30.52,2.25,10.11-3.37,17.16-11.62,26.29-16.72,10.17-4.08,22.49-4.68,30.39-13.23,8.41-12.62,6.85-30,14.33-42.94-.06-.54-.14-1.11-.22-1.67v0C422.61,272.44,211,248.59,178.1,347.12c-33.67,101,114.29,150.09,201,116.81-39.84,12.85-135.07,8.24-159.36-30.22A5.44,5.44,0,0,1,226.9,426C232.66,429.18,240.56,433.92,252.44,433.5Zm51.32-69.59c1.37.08,2.73.21,4.1.37a68.37,68.37,0,0,1,8.08,1.47,59.11,59.11,0,0,1,13.58,5.09c1,.51,1.94,1.05,2.87,1.63.54.33,1.07.67,1.59,1,1,.7,2,1.44,3,2.22-.55.26-1.12.53-1.7.78-.73.31-1.47.59-2.23.86l-.57.2c-.76.26-1.53.51-2.31.73h0c-.79.23-1.59.43-2.4.61l-.61.14c-1.63.36-3.3.65-5,.86l-.64.08c-1.7.2-3.44.32-5.19.38l-.66,0c-.87,0-1.75,0-2.63,0h0l-.91,0a64.39,64.39,0,0,1-28.66-7.45c-.18-.1-.37-.19-.55-.3a43.09,43.09,0,0,1-6-4.11l1.59-.72.54-.21,1.1-.44.65-.24,1-.36.69-.22,1-.32.71-.2,1.09-.29.68-.17,1.21-.26.59-.13c.6-.12,1.21-.23,1.82-.33h0c.61-.1,1.22-.19,1.84-.27l.61-.08,1.27-.14.73-.07,1.17-.09.77-.05,1.16,0,.77,0,1.19,0h.74l1.31,0h.62C302.47,363.84,303.11,363.87,303.76,363.91Z" style="opacity:0.1"></path><g id="freepik--glazed--inject-33"><path d="M434.18,356.42A102.13,102.13,0,0,0,418.37,332h0c-.09-.11-.18-.22-.28-.32-.46-.55-.94-1.1-1.43-1.64s-1.17-1.3-1.79-1.94-1.12-1.17-1.7-1.76l-.32-.31c-.61-.59-1.23-1.2-1.86-1.78s-1.23-1.15-1.87-1.72l-.35-.31-1.58-1.36a6.08,6.08,0,0,0-.47-.39c-.61-.53-1.23-1-1.87-1.55-.9-.73-1.84-1.44-2.79-2.16-44.83-33.57-122.9-42.95-174.4-20.94-1.66.72-3.29,1.46-4.87,2.23l-1.09.54c-.62.29-1.25.62-1.86.95l-1.36.72-1.77,1a77.33,77.33,0,0,0-8.52,5.51c-5.32,4-20.52,14.19-28.71,33.71a17.69,17.69,0,0,0-1.35,6.63v0c-.07,4.75,1.48,9.42,2.08,14.76.91,8,.13,16.83,5.1,23.12,5.61,7.12,16.2,7.88,23.4,13.4,5.91,4.56,9,11.88,14,17.37a30.74,30.74,0,0,0,18.21,9.56c5,.7,10.08.17,15,1C269.58,428.71,280,441,293.68,443.1c12.45,1.88,24.68-5.13,37.26-4.79,13.42.35,27.25,8.93,39.47,3.38,7.09-3.2,11.6-10.5,18.55-14,8.55-4.28,19.5-2.16,27.5-7.41,8.42-5.54,8.28-11.62,12.32-20.85,2.42-5.52,4.88-8.8,7.66-14.56a20.17,20.17,0,0,0,1.66-5.24C439.4,372.44,437.5,363.8,434.18,356.42ZM335.26,376.5c-16.79,7.2-42.29,4.13-56.92-6.84-.5-.37-1-.77-1.47-1.16.56-.29,1.13-.55,1.71-.8,16.81-7.18,42.28-4.12,56.92,6.83.5.38,1,.78,1.46,1.19C336.41,376,335.84,376.25,335.26,376.5Z" style="fill:#FF84E8"></path><path d="M434.18,356.42A102.13,102.13,0,0,0,418.37,332h0c-.09-.11-.18-.22-.28-.32-.46-.55-.94-1.1-1.43-1.64s-1.17-1.3-1.79-1.94-1.12-1.17-1.7-1.76l-.32-.31c-.61-.59-1.23-1.2-1.86-1.78s-1.23-1.15-1.87-1.72l-.35-.31-1.58-1.36a6.08,6.08,0,0,0-.47-.39c-.61-.53-1.23-1-1.87-1.55-.9-.73-1.84-1.44-2.79-2.16-44.83-33.57-122.9-42.95-174.4-20.94-1.66.72-3.29,1.46-4.87,2.23l-1.09.54c-.62.29-1.25.62-1.86.95l-1.36.72-1.77,1a77.33,77.33,0,0,0-8.52,5.51c-5.32,4-20.52,14.19-28.71,33.71a17.69,17.69,0,0,0-1.35,6.63v0c-.07,4.75,1.48,9.42,2.08,14.76.91,8,.13,16.83,5.1,23.12,5.61,7.12,16.2,7.88,23.4,13.4,5.91,4.56,9,11.88,14,17.37a30.74,30.74,0,0,0,18.21,9.56c5,.7,10.08.17,15,1C269.58,428.71,280,441,293.68,443.1c12.45,1.88,24.68-5.13,37.26-4.79,13.42.35,27.25,8.93,39.47,3.38,7.09-3.2,11.6-10.5,18.55-14,8.55-4.28,19.5-2.16,27.5-7.41,8.42-5.54,8.28-11.62,12.32-20.85,2.42-5.52,4.88-8.8,7.66-14.56a20.17,20.17,0,0,0,1.66-5.24C439.4,372.44,437.5,363.8,434.18,356.42ZM335.26,376.5c-16.79,7.2-42.29,4.13-56.92-6.84-.5-.37-1-.77-1.47-1.16.56-.29,1.13-.55,1.71-.8,16.81-7.18,42.28-4.12,56.92,6.83.5.38,1,.78,1.46,1.19C336.41,376,335.84,376.25,335.26,376.5Z" style="opacity:0.30000000000000004"></path><path d="M337,375.72c-.47-.41-1-.81-1.46-1.19-14.64-10.95-40.11-14-56.92-6.83-.58.25-1.15.51-1.71.8-13-10.81-10.79-24.75,5.42-31.69,16.81-7.18,42.28-4.12,56.92,6.83C353.33,354.23,352.17,368.3,337,375.72Z" style="opacity:0.15"></path><path d="M355.47,370c-6.1,6.47-14.29,11-23,13.56a68.32,68.32,0,0,1-52.95-6.34c-7.83-4.59-14.73-10.89-19.11-18.64a111.13,111.13,0,0,0,22.5,11.56A103.17,103.17,0,0,0,330.88,376,110.56,110.56,0,0,0,355.47,370Z" style="fill:#FF84E8"></path><g style="opacity:0.45"><path d="M355.47,370c-6.1,6.47-14.29,11-23,13.56a68.32,68.32,0,0,1-52.95-6.34c-7.83-4.59-14.73-10.89-19.11-18.64a111.13,111.13,0,0,0,22.5,11.56A103.17,103.17,0,0,0,330.88,376,110.56,110.56,0,0,0,355.47,370Z"></path></g><path d="M410,419c-8.62.54-17.63-1.68-25.73,1.31-7.7,2.84-13.46,10.05-21.51,11.69-10.57,2.15-20.54-6-31.31-6.74-10.31-.68-20.51,5.55-30.59,3.29-9.39-2.11-15.79-10.95-24.7-14.59-11.13-4.55-25.55-.8-34.41-8.93-3.66-3.36-5.58-8.18-8.46-12.23-8.05-11.33-23.31-16.37-29.94-28.58-5.47-10.06-3.6-22.67,1-33.15,8.58-19.45,25.56-33.71,45.22-42.39a136.53,136.53,0,0,0-22,7.15c-1.66.72-3.29,1.46-4.87,2.23l-1.09.54c-.62.29-1.25.62-1.86.95l-1.36.72-1.77,1a77.33,77.33,0,0,0-8.52,5.51c-5.32,4-20.52,14.19-28.71,33.71a17.69,17.69,0,0,0-1.35,6.63v0c-.07,4.75,1.48,9.42,2.08,14.76.91,8,.13,16.83,5.1,23.12,5.61,7.12,16.2,7.88,23.4,13.4,5.91,4.56,9,11.88,14,17.37a30.74,30.74,0,0,0,18.21,9.56c5,.7,10.08.17,15,1C269.58,428.71,280,441,293.68,443.1c12.45,1.88,24.68-5.13,37.26-4.79,13.42.35,27.25,8.93,39.47,3.38,7.09-3.2,11.6-10.5,18.55-14,8.55-4.28,19.5-2.16,27.5-7.41a20.48,20.48,0,0,0,5.91-5.64A24.06,24.06,0,0,1,410,419Z" style="opacity:0.15"></path><path d="M374.1,366.74c-5.27,12.58-18.75,18.73-31.1,22.25-10.77,3.58-22.59,2.85-33.71,1.41s-16.78-2.82-29.27-8.17c-3.27-1.39-5.79-3.19-7.86-1.14-4.77,4.73,6.51,13.33,12.79,17.71a71.48,71.48,0,0,1,6.53,5.13c3.69,3.25,7.5,6.38,12.18,8.17,6,2.69,12.51,3.16,18.94,3.59a92.94,92.94,0,0,1,13.65,2.64c2.71.71,5.38,1.58,8,2.54,11.88,4.3,16,3.63,23.77.11a87.37,87.37,0,0,1,28.65-7.26c6.05-.52,11.84-1.66,16.38-6a23.41,23.41,0,0,0,4.12-5.83,106.06,106.06,0,0,1,8.41-13.17c10.51-14.24,7-29.39-3.65-44.33-11.81-17.25-29.14-29.91-48.32-37.86-11.76-5.43-24.68-10.22-37.41-7.79-14.28,3-8.24,13.89.55,19.48,9.21,6.66,19.83,11.53,27.82,19.78C371.57,345.44,378.11,356.37,374.1,366.74Z" style="fill:#fff;opacity:0.1"></path><path d="M397.4,325.5c-7.07-5-21.22-11.69-26.55-3.65-4.57,6.88,14.88,18.78,19,22.75,6.48,6.51,12.49,14.51,13.63,23.86,0,7-3,8.58-2.63,14.93.29,5.35-3.67,9.59-6.77,10.22a37.78,37.78,0,0,0-13,5.09,9.87,9.87,0,0,0-4.89,7.14c-.63,3,1.77,5.7,4.62,3.48A32.64,32.64,0,0,1,397,404.87c10.54,1.42,14.45-5.57,17.88-14.2a35.44,35.44,0,0,1,4.41-8.2c1.6-2,3.65-3.76,4.81-6.07,2.08-4,2.31-9.56.73-16.4-1.66-7.2-5.9-13.38-10.6-19A75.76,75.76,0,0,0,397.4,325.5Z" style="fill:#fff;opacity:0.2"></path><path d="M403.86,343.59c-1.87,3.86-7.47,1.4-14-4.77s-12.37-10.57-9.42-13.69,11.32.42,17.84,6.58S404.75,341.74,403.86,343.59Z" style="fill:#fff;opacity:0.4"></path><path d="M404.84,347.77a3.53,3.53,0,1,1,3.05,4.29A3.73,3.73,0,0,1,404.84,347.77Z" style="fill:#fff;opacity:0.4"></path></g><path d="M422.23,336.69c-11.9-4.27-24.64-.3-35.35,5.26-12.92,6.71-24.94,15.4-37.19,23.24l-39.23,25.1-19.2,12.29c-6,3.84-12,8.13-18.84,10.41-11.71,3.92-26.32-3.22-19.39-17,5.64-11.22,16.16-20.62,26.15-27.87,22.9-16.63,55.44-29.3,80.12-42.7,8-4.36,22.2-12.91,19.94-24-1-5-5.77-7.37-10.33-8.18-7.2-1.28-15.06-1-22.31-.35-27.36,2.55-58,18.89-80.92,33.42-13.46,8.54-26.36,17.91-39.59,26.79-6.55,4.39-13.14,9.14-20.15,12.77-1.76.9-4.24,2.37-5.75.42-1-1.27-.78-3.68-.67-5.14a29.44,29.44,0,0,1,2.43-8.5c14.13-34.61,50.46-52.43,81.81-68.51-1.89-3.55-14,0-16.64,1.17-25.41,11-39.19,17.63-57.79,38.74-8.15,9.27-16,20.8-18.68,33C188,369.1,196.76,378.82,209,373.62c6.38-2.7,12.29-7.14,18.05-10.94,6.64-4.39,13.17-8.94,19.72-13.46,12.11-8.36,24.26-16.71,37.06-24,13.31-7.56,32.94-17.13,47.6-21.65a85.39,85.39,0,0,1,19.41-4c4.72-.53,8-.91,12.19-.12,3.54.67,5.85,2,6.75,3.17,1.19,1.57.35,4.53-.51,5.7-3.87,5.27-11.62,8.34-17.28,11.32-7.35,3.88-20.27,11.39-27.84,14.83-13.58,6.16-27.3,12.21-40.09,20-10.9,6.59-21.27,14.44-29.73,24-7.51,8.51-17.34,21.19-10.45,32.79,5.84,9.84,18.59,12.7,29.06,10.17,14.24-3.43,27-14.14,39.11-21.9l41.69-26.7c12.79-8.19,25.38-17.3,38.87-24.3,7.3-3.79,16.23-7.18,24.56-5.05,3.12.8,6.7,2.6,7.92,5.81,1.55,4.08-1.41,8-4.07,10.73-11.29,11.69-26.82,20.16-40.43,28.82-7,4.44-14,8.89-20.75,13.62-5.87,4.1-13.15,8.34-17.39,14.26-3.69,5.15-3.17,11.26.82,16.1,5,6.06,12.44,6.91,19.71,7.58,4,.37,2.1-5.06-.6-5.74-5.94-1.49-17.91-5.85-11.67-13.89,4.06-5.23,11.05-9.08,16.43-12.79,11.19-7.72,22.85-14.72,34.18-22.22,5.41-3.58,10.75-7.26,15.91-11.19s10.59-7.76,14.31-13C438.62,351.48,433.06,340.57,422.23,336.69Z" style="fill:#FF84E8"></path><path d="M422.23,336.69c-11.9-4.27-24.64-.3-35.35,5.26-12.92,6.71-24.94,15.4-37.19,23.24l-39.23,25.1-19.2,12.29c-6,3.84-12,8.13-18.84,10.41-11.71,3.92-26.32-3.22-19.39-17,5.64-11.22,16.16-20.62,26.15-27.87,22.9-16.63,55.44-29.3,80.12-42.7,8-4.36,22.2-12.91,19.94-24-1-5-5.77-7.37-10.33-8.18-7.2-1.28-15.06-1-22.31-.35-27.36,2.55-58,18.89-80.92,33.42-13.46,8.54-26.36,17.91-39.59,26.79-6.55,4.39-13.14,9.14-20.15,12.77-1.76.9-4.24,2.37-5.75.42-1-1.27-.78-3.68-.67-5.14a29.44,29.44,0,0,1,2.43-8.5c14.13-34.61,50.46-52.43,81.81-68.51-1.89-3.55-14,0-16.64,1.17-25.41,11-39.19,17.63-57.79,38.74-8.15,9.27-16,20.8-18.68,33C188,369.1,196.76,378.82,209,373.62c6.38-2.7,12.29-7.14,18.05-10.94,6.64-4.39,13.17-8.94,19.72-13.46,12.11-8.36,24.26-16.71,37.06-24,13.31-7.56,32.94-17.13,47.6-21.65a85.39,85.39,0,0,1,19.41-4c4.72-.53,8-.91,12.19-.12,3.54.67,5.85,2,6.75,3.17,1.19,1.57.35,4.53-.51,5.7-3.87,5.27-11.62,8.34-17.28,11.32-7.35,3.88-20.27,11.39-27.84,14.83-13.58,6.16-27.3,12.21-40.09,20-10.9,6.59-21.27,14.44-29.73,24-7.51,8.51-17.34,21.19-10.45,32.79,5.84,9.84,18.59,12.7,29.06,10.17,14.24-3.43,27-14.14,39.11-21.9l41.69-26.7c12.79-8.19,25.38-17.3,38.87-24.3,7.3-3.79,16.23-7.18,24.56-5.05,3.12.8,6.7,2.6,7.92,5.81,1.55,4.08-1.41,8-4.07,10.73-11.29,11.69-26.82,20.16-40.43,28.82-7,4.44-14,8.89-20.75,13.62-5.87,4.1-13.15,8.34-17.39,14.26-3.69,5.15-3.17,11.26.82,16.1,5,6.06,12.44,6.91,19.71,7.58,4,.37,2.1-5.06-.6-5.74-5.94-1.49-17.91-5.85-11.67-13.89,4.06-5.23,11.05-9.08,16.43-12.79,11.19-7.72,22.85-14.72,34.18-22.22,5.41-3.58,10.75-7.26,15.91-11.19s10.59-7.76,14.31-13C438.62,351.48,433.06,340.57,422.23,336.69Z" style="fill:#fff;opacity:0.65"></path><path d="M331.46,303.58a85.39,85.39,0,0,1,19.41-4c4.72-.53,8-.91,12.19-.12,3.54.67,5.85,2,6.75,3.17-.29-3.93-8.15-7.23-24.35-5.61s-40.09,11.94-65.16,26.15-46.85,31-61.57,41.4c-14.16,10-19.11,10.09-24.88,6.85,3.37,3.59,8.8,4.93,15.18,2.22s12.29-7.14,18.05-10.94c6.64-4.39,13.17-8.94,19.72-13.46,12.11-8.36,24.26-16.71,37.06-24C297.17,317.67,316.8,308.1,331.46,303.58ZM199.52,361.11a29.44,29.44,0,0,1,2.43-8.5c14.13-34.61,50.46-52.43,81.81-68.51a3.06,3.06,0,0,0-2.23-1.36,290.88,290.88,0,0,0-32.62,16.32c-25.21,14.6-37.12,27.95-45.76,42.07s-6.79,20.33-3,25.12C199.21,365,199.41,362.57,199.52,361.11Zm193.12-12.62c7.3-3.79,16.23-7.18,24.56-5.05,3.12.8,6.7,2.6,7.92,5.81a6.59,6.59,0,0,1,.41,2.62c1.5-7.48-7.16-14.62-22.38-11.64s-33.07,17.54-56.42,32.23S308.17,398.81,293.84,408c-13.83,8.88-29.59,14.58-36.17,13.2a31.21,31.21,0,0,0,15.3.18c14.24-3.43,27-14.14,39.11-21.9l41.69-26.7C366.56,364.6,379.15,355.49,392.64,348.49ZM253,396c5.64-11.22,16.16-20.62,26.15-27.87,22.9-16.63,55.44-29.3,80.12-42.7,6.36-3.45,16.54-9.52,19.41-17.41-2.85,6.31-22.44,16.19-38.63,23.44s-36,16.27-54.91,27.86-30.25,23.79-34.73,32.7c-4.38,8.72-.14,14.18,3.75,17.84C251.08,406.7,250,402,253,396Zm147.78-14.17c-20.92,12.16-42.05,25.51-49,31.43-6.26,5.31-4.92,10.84-1.81,14.82-1.36-2-1.49-4.4.77-7.31,4.06-5.23,11.05-9.08,16.43-12.79,11.19-7.72,22.85-14.72,34.18-22.22,5.41-3.58,10.75-7.26,15.91-11.19s10.59-7.76,14.31-13a17.26,17.26,0,0,0,2.74-5.93C431.91,361.05,420.2,370.51,400.81,381.79Z" style="fill:#FF84E8;opacity:0.4"></path></g></g><g id="freepik--donut-1--inject-33"><g id="freepik--donut--inject-33"><path d="M267.23,280.27C285.71,175.44,79,97.07,22.51,186.64-57.53,313.47,237.23,426.43,267.23,280.27Zm-99.12-27.59c-18.67,3-43.4-6.47-54.78-21.71,19.21-4,44.83,5.67,56.62,21.35C169.35,252.45,168.74,252.58,168.11,252.68Z" style="fill:#ffbda7"></path><path d="M74.08,288.26a25.4,25.4,0,0,1,11.78,5.84c5.88,5.26,10.44,12.22,17.13,16.53,14,10.52,33.73,3.47,49.4,9.66,9.37,4,18.42,10.12,29.1,9.47,10.62-.86,19.44-7.19,29.52-10,10.85-1.54,23,.82,32.67-5.6,11.17-10.24,13.82-27.5,24.17-38.27.06-.54.13-1.11.18-1.67v0C277.78,172.48,78,98.79,22.51,186.64c-56.8,90,75.16,173,167.29,161.41C148,351,56.38,323.71,42.19,280.45c-1.73-5.27,4.8-9.35,8.88-5.58C55.89,279.34,62.44,285.83,74.08,288.26Zm66.45-55.33c1.31.41,2.61.86,3.89,1.34a69.06,69.06,0,0,1,7.5,3.35,59.54,59.54,0,0,1,12,8.19c.83.74,1.63,1.49,2.4,2.27q.66.67,1.29,1.38c.84.93,1.63,1.88,2.37,2.86-.6.13-1.21.26-1.84.36q-1.17.18-2.37.3l-.6.06c-.8.07-1.6.13-2.42.16h0c-.82,0-1.65,0-2.48,0h-.63c-1.67,0-3.36-.17-5.06-.36l-.64-.08q-2.55-.33-5.13-.87l-.64-.14c-.86-.19-1.71-.39-2.56-.61h0l-.87-.24a64.45,64.45,0,0,1-26-14.07c-.16-.15-.32-.28-.47-.43a42.48,42.48,0,0,1-4.85-5.43c.56-.12,1.13-.22,1.71-.31l.57-.09,1.18-.16.68-.07,1.1-.11.72,0,1.09-.06.74,0,1.12,0c.24,0,.47,0,.71,0q.61,0,1.23,0h.61c.61,0,1.22.06,1.84.11h0l1.86.18.61.07,1.26.17.73.11,1.16.18.75.14,1.14.22.76.16c.39.08.77.17,1.16.27l.72.17,1.26.33.61.16Z" style="opacity:0.1"></path><g id="freepik--glazed--inject-33"><path d="M269,256.8a102.28,102.28,0,0,0-9.53-27.47h0a2.75,2.75,0,0,0-.2-.38c-.31-.64-.65-1.29-1-1.93s-.83-1.54-1.28-2.32-.81-1.4-1.23-2.11c-.08-.12-.15-.26-.23-.38-.46-.72-.91-1.46-1.39-2.17s-.92-1.42-1.4-2.11c-.08-.12-.17-.26-.27-.39l-1.21-1.7c-.11-.16-.23-.33-.36-.49-.47-.65-.95-1.3-1.45-2-.7-.92-1.44-1.84-2.19-2.76-35.52-43.31-109.09-71-164.36-62q-2.68.47-5.27,1l-1.18.27c-.67.14-1.36.3-2,.48l-1.49.38-2,.54a75.72,75.72,0,0,0-9.59,3.31c-6.12,2.62-23.31,8.88-35.92,25.88a17.69,17.69,0,0,0-2.9,6.13h0c-1.2,4.6-.81,9.51-1.5,14.83-1,8-3.9,16.37-.58,23.67,3.75,8.25,13.86,11.52,19.53,18.59,4.65,5.85,5.86,13.68,9.45,20.22a30.82,30.82,0,0,0,15.41,13.63c4.67,1.87,9.75,2.58,14.34,4.57,12.7,5.54,19.87,20,32.67,25.26,11.65,4.8,25.2.92,37.33,4.25,13,3.55,24.33,15.18,37.52,12.71,7.65-1.42,13.77-7.43,21.35-9.16,9.33-2.11,19.46,2.56,28.49-.63,9.49-3.37,10.81-9.31,16.94-17.31,3.67-4.78,6.83-7.38,10.91-12.31a20,20,0,0,0,2.86-4.7C270.21,273.6,270.43,264.76,269,256.8Zm-100.86-4.12c-18,3-42.05-6.08-53.64-20.23-.4-.49-.78-1-1.14-1.48.6-.14,1.22-.27,1.84-.37,18-3,42.05,6.1,53.64,20.23.4.49.78,1,1.14,1.49C169.35,252.45,168.74,252.58,168.11,252.68Z" style="fill:#FF84E8"></path><path d="M269,256.8a102.28,102.28,0,0,0-9.53-27.47h0a2.75,2.75,0,0,0-.2-.38c-.31-.64-.65-1.29-1-1.93s-.83-1.54-1.28-2.32-.81-1.4-1.23-2.11c-.08-.12-.15-.26-.23-.38-.46-.72-.91-1.46-1.39-2.17s-.92-1.42-1.4-2.11c-.08-.12-.17-.26-.27-.39l-1.21-1.7c-.11-.16-.23-.33-.36-.49-.47-.65-.95-1.3-1.45-2-.7-.92-1.44-1.84-2.19-2.76-35.52-43.31-109.09-71-164.36-62q-2.68.47-5.27,1l-1.18.27c-.67.14-1.36.3-2,.48l-1.49.38-2,.54a75.72,75.72,0,0,0-9.59,3.31c-6.12,2.62-23.31,8.88-35.92,25.88a17.69,17.69,0,0,0-2.9,6.13h0c-1.2,4.6-.81,9.51-1.5,14.83-1,8-3.9,16.37-.58,23.67,3.75,8.25,13.86,11.52,19.53,18.59,4.65,5.85,5.86,13.68,9.45,20.22a30.82,30.82,0,0,0,15.41,13.63c4.67,1.87,9.75,2.58,14.34,4.57,12.7,5.54,19.87,20,32.67,25.26,11.65,4.8,25.2.92,37.33,4.25,13,3.55,24.33,15.18,37.52,12.71,7.65-1.42,13.77-7.43,21.35-9.16,9.33-2.11,19.46,2.56,28.49-.63,9.49-3.37,10.81-9.31,16.94-17.31,3.67-4.78,6.83-7.38,10.91-12.31a20,20,0,0,0,2.86-4.7C270.21,273.6,270.43,264.76,269,256.8Zm-100.86-4.12c-18,3-42.05-6.08-53.64-20.23-.4-.49-.78-1-1.14-1.48.6-.14,1.22-.27,1.84-.37,18-3,42.05,6.1,53.64,20.23.4.49.78,1,1.14,1.49C169.35,252.45,168.74,252.58,168.11,252.68Z" style="fill:#fff;opacity:0.1"></path><path d="M170,252.32c-.36-.51-.74-1-1.14-1.49-11.59-14.13-35.6-23.19-53.64-20.23-.62.1-1.24.23-1.84.37-10.06-13.6-4.58-26.61,12.82-29.48,18-3,42,6.09,53.64,20.22C191,235.37,186.5,248.75,170,252.32Z" style="fill:#FF84E8"></path><path d="M189.28,251.23c-7.46,4.83-16.49,7.23-25.55,7.69a68.27,68.27,0,0,1-49.9-18.81c-6.51-6.32-11.71-14.09-14.12-22.65a111.63,111.63,0,0,0,19.1,16.59,102.92,102.92,0,0,0,45.18,17A110.6,110.6,0,0,0,189.28,251.23Z" style="fill:#FF84E8"></path><path d="M189.28,251.23c-7.46,4.83-16.49,7.23-25.55,7.69a68.27,68.27,0,0,1-49.9-18.81c-6.51-6.32-11.71-14.09-14.12-22.65a111.63,111.63,0,0,0,19.1,16.59,102.92,102.92,0,0,0,45.18,17A110.6,110.6,0,0,0,189.28,251.23Z" style="opacity:0.15"></path><path d="M230.53,311.8c-8.5-1.54-16.71-5.84-25.29-4.87-8.16.92-15.48,6.55-23.68,6.22-10.79-.44-18.51-10.76-28.8-14-9.85-3.12-21.24.5-30.49-4.1-8.62-4.29-12.72-14.41-20.5-20.07-9.73-7.08-24.62-6.87-31.28-16.88-2.76-4.14-3.47-9.27-5.3-13.9-5.11-12.92-18.73-21.46-22.26-34.9-2.9-11.08,1.92-22.87,8.91-31.94,13-16.85,32.87-26.64,54-30.37a137.39,137.39,0,0,0-23,1.69q-2.68.47-5.27,1l-1.18.27c-.67.14-1.36.3-2,.48l-1.49.38-2,.54a75.72,75.72,0,0,0-9.59,3.31c-6.12,2.62-23.31,8.88-35.92,25.88a17.69,17.69,0,0,0-2.9,6.13h0c-1.2,4.6-.81,9.51-1.5,14.83-1,8-3.9,16.37-.58,23.67,3.75,8.25,13.86,11.52,19.53,18.59,4.65,5.85,5.86,13.68,9.45,20.22a30.82,30.82,0,0,0,15.41,13.63c4.67,1.87,9.75,2.58,14.34,4.57,12.7,5.54,19.87,20,32.67,25.26,11.65,4.8,25.2.92,37.33,4.25,13,3.55,24.33,15.18,37.52,12.71,7.65-1.42,13.77-7.43,21.35-9.16,9.33-2.11,19.46,2.56,28.49-.63a20.6,20.6,0,0,0,7.08-4.07A24.09,24.09,0,0,1,230.53,311.8Z" style="opacity:0.1"></path><path d="M208.16,252.48c-8.12,11-22.68,13.7-35.52,14.18-11.31.9-22.61-2.64-33.06-6.68S124,253.24,113.1,245.06c-2.84-2.14-4.86-4.48-7.36-3-5.76,3.45,3.14,14.49,8.19,20.24a71.89,71.89,0,0,1,5.12,6.54c2.81,4,5.76,8,9.88,10.84,5.14,4,11.39,6.07,17.53,8a93.79,93.79,0,0,1,12.63,5.83c2.47,1.33,4.85,2.82,7.18,4.37,10.51,7,14.66,7.35,23,5.79a87.63,87.63,0,0,1,29.57-.21c6,.94,11.89,1.21,17.33-1.91a23.37,23.37,0,0,0,5.39-4.68,106.68,106.68,0,0,1,11.31-10.78c13.61-11.31,13.78-26.88,7-43.91-7.35-19.58-21.16-36-37.89-48.31-10.12-8.08-21.53-15.81-34.46-16.5-14.58-.52-11.32,11.53-4.12,19.06,7.36,8.66,16.5,15.92,22.29,25.85C210.79,231.18,214.53,243.37,208.16,252.48Z" style="fill:#fff;opacity:0.1"></path><path d="M240.63,218c-5.66-6.57-17.82-16.42-24.91-9.88-6.08,5.59,10,21.79,13,26.62,4.74,7.87,8.67,17.07,7.54,26.43-1.67,6.79-4.95,7.61-6.12,13.86-1,5.27-5.85,8.43-9,8.31a37.75,37.75,0,0,0-13.86,1.83,9.91,9.91,0,0,0-6.46,5.77c-1.32,2.77.37,6,3.66,4.49a32.68,32.68,0,0,1,16.83-.46c9.9,3.91,15.36-1.95,20.76-9.51a35.08,35.08,0,0,1,6.24-6.91c2-1.6,4.44-2.78,6.12-4.75,3-3.37,4.52-8.73,4.62-15.75.11-7.39-2.53-14.4-5.76-21A75.85,75.85,0,0,0,240.63,218Z" style="fill:#fff;opacity:0.2"></path><path d="M242.59,237.09c-2.74,3.31-7.59-.42-12.46-8s-9.49-13.22-5.88-15.55,10.89,3.11,15.75,10.65S243.89,235.52,242.59,237.09Z" style="fill:#fff;opacity:0.4"></path><path d="M242.54,241.39a3.53,3.53,0,1,1,1.93,4.89A3.72,3.72,0,0,1,242.54,241.39Z" style="fill:#fff;opacity:0.4"></path></g><g id="freepik--sparks--inject-33"><g style="opacity:0.1"><path d="M52.89,193.33a1.73,1.73,0,0,1-1-1A1.78,1.78,0,0,1,52.8,190l10.68-4.66a1.78,1.78,0,0,1,1.43,3.27l-10.69,4.65A1.71,1.71,0,0,1,52.89,193.33Z"></path><path d="M39.57,233.93a1.85,1.85,0,0,1-.37-.19,1.78,1.78,0,0,1-.5-2.47l6.43-9.71a1.78,1.78,0,1,1,3,2l-6.43,9.72A1.78,1.78,0,0,1,39.57,233.93Z"></path><path d="M57.48,261.39a2.42,2.42,0,0,1-.36-.18,1.79,1.79,0,0,1-.51-2.47L63,249a1.79,1.79,0,1,1,3,2l-6.43,9.71A1.79,1.79,0,0,1,57.48,261.39Z"></path><path d="M170.3,278.75a1.75,1.75,0,0,1-.46-.26,1.79,1.79,0,0,1-.34-2.5l7.07-9.26a1.78,1.78,0,0,1,2.84,2.16l-7.07,9.27A1.81,1.81,0,0,1,170.3,278.75Z"></path><path d="M56.24,215a1.79,1.79,0,0,1-.09-3.31L66.83,207a1.78,1.78,0,0,1,1.42,3.27L57.57,215A1.8,1.8,0,0,1,56.24,215Z"></path><path d="M59.18,220.39a1.78,1.78,0,0,1,.87-3.43l11.53,1.65a1.78,1.78,0,1,1-.5,3.52l-11.54-1.64A1.48,1.48,0,0,1,59.18,220.39Z"></path><path d="M82.92,220.3a1.78,1.78,0,0,1,1-3.42l11.42,2.3a1.79,1.79,0,0,1-.71,3.5l-11.42-2.31A1.34,1.34,0,0,1,82.92,220.3Z"></path><path d="M138.62,173.7a1.87,1.87,0,0,1-.71-.48l-7.75-8.71a1.78,1.78,0,0,1,2.67-2.36l7.75,8.7a1.78,1.78,0,0,1-2,2.85Z"></path><path d="M159.05,218.28a1.79,1.79,0,0,1-1.16-1.56l-.78-11.62a1.78,1.78,0,0,1,3.56-.24l.77,11.62a1.77,1.77,0,0,1-1.66,1.9A1.8,1.8,0,0,1,159.05,218.28Z"></path><path d="M172.92,223.82a1.74,1.74,0,0,1-1-.95,1.78,1.78,0,0,1,.91-2.35l10.67-4.69a1.78,1.78,0,1,1,1.43,3.26l-10.66,4.69A1.73,1.73,0,0,1,172.92,223.82Z"></path><path d="M164.92,312.11a1.73,1.73,0,0,1-.95-.82,1.78,1.78,0,0,1,.72-2.42l10.25-5.53a1.78,1.78,0,1,1,1.7,3.13L166.38,312A1.78,1.78,0,0,1,164.92,312.11Z"></path><path d="M216.46,259.5a1.82,1.82,0,0,1-1-.83,1.78,1.78,0,0,1,.72-2.41l10.26-5.53a1.78,1.78,0,1,1,1.69,3.13l-10.25,5.54A1.81,1.81,0,0,1,216.46,259.5Z"></path><path d="M235.37,284.52a1.78,1.78,0,0,1,1.13-3.38l11.16,3.36a1.78,1.78,0,1,1-1,3.41l-11.16-3.36Z"></path><path d="M31.06,189.09a1.78,1.78,0,0,1,1.13-3.38l11.16,3.36a1.8,1.8,0,0,1,1.19,2.22,1.78,1.78,0,0,1-2.22,1.2l-11.15-3.36Z"></path><path d="M239.17,237.34A1.78,1.78,0,0,1,240.3,234l11.16,3.36a1.82,1.82,0,0,1,1.2,2.22,1.79,1.79,0,0,1-2.22,1.2l-11.16-3.36Z"></path><path d="M156.86,283.76a1.77,1.77,0,0,1-1.16-1.55l-.77-11.62a1.77,1.77,0,0,1,1.65-1.9,1.79,1.79,0,0,1,1.9,1.66l.78,11.62a1.79,1.79,0,0,1-1.66,1.9A1.67,1.67,0,0,1,156.86,283.76Z"></path><path d="M199.59,278.58a1.76,1.76,0,0,1-1.15-1.55l-.78-11.63a1.78,1.78,0,0,1,1.65-1.9,1.8,1.8,0,0,1,1.9,1.66l.78,11.63a1.79,1.79,0,0,1-1.66,1.9A1.82,1.82,0,0,1,199.59,278.58Z"></path><path d="M98.83,234.31a1.73,1.73,0,0,1-1.17-1.54,1.8,1.8,0,0,1,2.39-1.81l11,3.93a1.75,1.75,0,0,1,1.07,2.28,1.78,1.78,0,0,1-2.28,1.08l-11-3.94Z"></path><path d="M94.42,209.74a1.86,1.86,0,0,1-.51-.29l-9-7.38a1.78,1.78,0,0,1,2.26-2.76l9,7.38a1.78,1.78,0,0,1-1.75,3.05Z"></path><path d="M110.41,276.17a1.73,1.73,0,0,1-1-1,1.77,1.77,0,0,1,.92-2.34L121,268.22a1.78,1.78,0,0,1,1.42,3.26l-10.68,4.66A1.75,1.75,0,0,1,110.41,276.17Z"></path><path d="M102.11,296.53a1.92,1.92,0,0,1-.29-.14,1.78,1.78,0,0,1-.63-2.44l5.92-10a1.78,1.78,0,1,1,3.07,1.81l-5.92,10A1.78,1.78,0,0,1,102.11,296.53Z"></path><path d="M239.08,271.08a1.74,1.74,0,0,1-1-.89L233,259.7a1.78,1.78,0,0,1,3.21-1.55l5.08,10.48a1.78,1.78,0,0,1-.82,2.38A1.8,1.8,0,0,1,239.08,271.08Z"></path><path d="M87.57,283.87a1.8,1.8,0,0,1-1.17-1.62l-.33-11.65a1.78,1.78,0,0,1,3.56-.1L90,282.15A1.78,1.78,0,0,1,88.24,284,1.66,1.66,0,0,1,87.57,283.87Z"></path><path d="M189.33,310.05a1.74,1.74,0,0,1-1-.89l-5.09-10.49a1.78,1.78,0,0,1,3.21-1.55l5.08,10.48a1.78,1.78,0,0,1-.82,2.38A1.8,1.8,0,0,1,189.33,310.05Z"></path><path d="M211.61,234.4a1.74,1.74,0,0,1-1-.89L205.54,223a1.78,1.78,0,1,1,3.2-1.55L213.83,232a1.78,1.78,0,0,1-2.22,2.45Z"></path><path d="M219.34,290.18a1.76,1.76,0,0,1-1-.89l-5.09-10.49a1.78,1.78,0,0,1,3.21-1.55l5.09,10.48a1.78,1.78,0,0,1-2.22,2.45Z"></path><path d="M257.26,265.3a1.83,1.83,0,0,1-1-.9l-5.09-10.48a1.78,1.78,0,0,1,3.21-1.56l5.09,10.49a1.78,1.78,0,0,1-.83,2.38A1.8,1.8,0,0,1,257.26,265.3Z"></path><path d="M217.84,219.92a1.78,1.78,0,0,1,.32-3.43l11.49-1.93a1.78,1.78,0,0,1,.59,3.51L218.75,220A1.74,1.74,0,0,1,217.84,219.92Z"></path><path d="M141,195.69a1.78,1.78,0,0,1,.83-3.44l11.57,1.42a1.78,1.78,0,0,1-.44,3.54l-11.56-1.42A1.67,1.67,0,0,1,141,195.69Z"></path><path d="M85.56,185.17a1.78,1.78,0,0,1,.84-3.44L98,183.16a1.78,1.78,0,0,1-.44,3.54L86,185.27A1.45,1.45,0,0,1,85.56,185.17Z"></path><path d="M128.27,300.09a1.81,1.81,0,0,1-1-.9l-5.08-10.48a1.78,1.78,0,1,1,3.2-1.56l5.09,10.49a1.78,1.78,0,0,1-2.22,2.45Z"></path><path d="M101.86,268.38a1.76,1.76,0,0,1-1-.89L95.79,257a1.78,1.78,0,1,1,3.2-1.56l5.09,10.48a1.78,1.78,0,0,1-.83,2.38A1.73,1.73,0,0,1,101.86,268.38Z"></path><path d="M180.44,287.36a1.75,1.75,0,0,1-1-.9,1.78,1.78,0,0,1,.84-2.38l10.53-5a1.78,1.78,0,0,1,1.53,3.22l-10.53,5A1.79,1.79,0,0,1,180.44,287.36Z"></path><path d="M70.41,267.74a1.76,1.76,0,0,1-1-.91,1.78,1.78,0,0,1,.85-2.37l10.52-5a1.78,1.78,0,1,1,1.53,3.22l-10.52,5A1.82,1.82,0,0,1,70.41,267.74Z"></path><path d="M201.68,207.1a1.78,1.78,0,0,1-.15-3.28l10.53-5a1.78,1.78,0,1,1,1.53,3.22l-10.52,5A1.82,1.82,0,0,1,201.68,207.1Z"></path><path d="M177.06,206.39a1.82,1.82,0,0,1-1-1,1.78,1.78,0,0,1,1-2.32l10.79-4.41a1.78,1.78,0,0,1,1.35,3.3l-10.79,4.41A1.8,1.8,0,0,1,177.06,206.39Z"></path><path d="M205.8,261.13a1.77,1.77,0,0,1-.31-.15l-10-6a1.78,1.78,0,1,1,1.83-3l10,6a1.78,1.78,0,0,1-1.53,3.2Z"></path><path d="M173.17,179.11a1.76,1.76,0,0,1-.89-.73l-6.15-9.9a1.78,1.78,0,1,1,3-1.88l6.15,9.9a1.79,1.79,0,0,1-2.14,2.61Z"></path><path d="M146.62,267.18a1.81,1.81,0,0,1-1.06-1.07l-3.93-11a1.78,1.78,0,1,1,3.35-1.21l3.94,11a1.79,1.79,0,0,1-1.08,2.28A1.82,1.82,0,0,1,146.62,267.18Z"></path><path d="M131.71,281.43a1.74,1.74,0,0,1-.73-.5,1.78,1.78,0,0,1,.18-2.51L140,270.8a1.79,1.79,0,0,1,2.33,2.71l-8.83,7.6A1.77,1.77,0,0,1,131.71,281.43Z"></path><path d="M167.86,301.28a1.81,1.81,0,0,1-.83-.63l-6.81-9.45a1.78,1.78,0,0,1,2.89-2.09l6.81,9.45a1.78,1.78,0,0,1-2.06,2.72Z"></path><path d="M127.71,180.27a1.81,1.81,0,0,1-.83-.63l-6.81-9.45a1.78,1.78,0,0,1,2.89-2.08l6.81,9.45a1.78,1.78,0,0,1-2.06,2.71Z"></path><path d="M258.74,285.38a1.74,1.74,0,0,1-.82-.63l-6.82-9.45a1.78,1.78,0,0,1,2.89-2.08l6.82,9.45a1.78,1.78,0,0,1-2.07,2.71Z"></path><path d="M210.12,247.15a1.81,1.81,0,0,1-.83-.63l-6.81-9.45a1.78,1.78,0,1,1,2.89-2.08l6.82,9.45a1.79,1.79,0,0,1-2.07,2.71Z"></path><path d="M167,179.8l-.22-.1-10.29-5.47a1.78,1.78,0,0,1,1.67-3.15l10.29,5.48A1.78,1.78,0,0,1,167,179.8Z"></path><path d="M143,304.11a1.84,1.84,0,0,1-.85-.67,1.79,1.79,0,0,1,.47-2.48l9.64-6.54a1.78,1.78,0,1,1,2,2.95l-9.64,6.54A1.77,1.77,0,0,1,143,304.11Z"></path><path d="M30.35,209.74a1.84,1.84,0,0,1-.85-.67,1.8,1.8,0,0,1,.47-2.48l9.64-6.54a1.78,1.78,0,0,1,2,2.95L32,209.54A1.77,1.77,0,0,1,30.35,209.74Z"></path><path d="M50.09,248a1.81,1.81,0,0,1-.86-.67,1.79,1.79,0,0,1,.48-2.48l9.64-6.54a1.78,1.78,0,0,1,2,2.95l-9.64,6.54A1.78,1.78,0,0,1,50.09,248Z"></path><path d="M183.49,239.61a1.81,1.81,0,0,1-.85-.66,1.79,1.79,0,0,1,.47-2.48l9.65-6.55a1.78,1.78,0,0,1,2,3l-9.64,6.55A1.79,1.79,0,0,1,183.49,239.61Z"></path><path d="M212.39,307.38l-.3-.15-10-6a1.8,1.8,0,0,1-.61-2.45,1.78,1.78,0,0,1,2.45-.6l10,6a1.78,1.78,0,0,1-1.54,3.2Z"></path><path d="M225.25,301.83a1.79,1.79,0,0,1,.89-3.44l11.52,1.8a1.78,1.78,0,1,1-.55,3.52l-11.52-1.79A1.89,1.89,0,0,1,225.25,301.83Z"></path><path d="M225.12,233.83a1.78,1.78,0,0,1,.89-3.43l11.51,1.79a1.8,1.8,0,0,1,1.49,2,1.78,1.78,0,0,1-2,1.48l-11.51-1.79A1.89,1.89,0,0,1,225.12,233.83Z"></path><path d="M181.63,192.07a1.82,1.82,0,0,1-.69-.46,1.78,1.78,0,0,1,.09-2.52l8.54-7.93a1.78,1.78,0,1,1,2.43,2.61l-8.54,7.93A1.76,1.76,0,0,1,181.63,192.07Z"></path><path d="M134,207.16a1.35,1.35,0,0,1-.3-.14l-10-6a1.78,1.78,0,0,1,1.83-3.06l10,6a1.78,1.78,0,0,1-1.54,3.2Z"></path><path d="M50,175.11a1.75,1.75,0,0,1-1.15-1.44,1.78,1.78,0,0,1,1.54-2L62,170.19a1.78,1.78,0,0,1,.45,3.54l-11.56,1.48A1.7,1.7,0,0,1,50,175.11Z"></path><path d="M117.82,253.66a1.82,1.82,0,0,1-1-.85,1.79,1.79,0,0,1,.77-2.4L128,245.05a1.78,1.78,0,0,1,1.64,3.17l-10.35,5.35A1.77,1.77,0,0,1,117.82,253.66Z"></path><path d="M74.75,168.63a1.78,1.78,0,0,1,.83-3.44l11.57,1.35a1.78,1.78,0,1,1-.41,3.54l-11.57-1.35A1.84,1.84,0,0,1,74.75,168.63Z"></path><path d="M89.17,245.68l-.3-.15-10-6a1.78,1.78,0,1,1,1.84-3.05l10,6a1.78,1.78,0,0,1-1.54,3.2Z"></path><path d="M111.79,204a1.76,1.76,0,0,1-1-.9l-5.09-10.48a1.78,1.78,0,1,1,3.2-1.56L114,201.57a1.78,1.78,0,0,1-2.22,2.45Z"></path><path d="M104.39,170.32a1.76,1.76,0,0,1-1-.89L98.32,159a1.78,1.78,0,1,1,3.2-1.56l5.09,10.48a1.78,1.78,0,0,1-2.22,2.45Z"></path></g><path d="M66.32,246.34a1.8,1.8,0,0,0-2.47.5l-6.43,9.72a1.78,1.78,0,0,0,.5,2.47,2.53,2.53,0,0,0,.37.18,1.77,1.77,0,0,0,2.1-.69l6.43-9.71A1.78,1.78,0,0,0,66.32,246.34Zm7.58-27.9a1.78,1.78,0,0,0-1.51-2l-11.53-1.65a1.78,1.78,0,0,0-.88,3.43,1.56,1.56,0,0,0,.37.1L71.89,220A1.77,1.77,0,0,0,73.9,218.44ZM159.58,201a1.77,1.77,0,0,0-1.66,1.9l.78,11.62a1.78,1.78,0,0,0,1.15,1.56,1.82,1.82,0,0,0,.74.1,1.77,1.77,0,0,0,1.66-1.89l-.78-11.63A1.77,1.77,0,0,0,159.58,201Zm24.71,12.63-10.66,4.69a1.78,1.78,0,0,0,.1,3.3,1.71,1.71,0,0,0,1.33,0l10.67-4.69a1.78,1.78,0,0,0-1.44-3.26Zm-8.54,87.51-10.26,5.53a1.79,1.79,0,0,0-.72,2.42,1.76,1.76,0,0,0,.95.82,1.81,1.81,0,0,0,1.47-.1l10.25-5.54a1.78,1.78,0,0,0-1.69-3.13Zm51.54-52.61L217,254.08a1.78,1.78,0,0,0,1.69,3.14L229,251.68a1.78,1.78,0,1,0-1.7-3.13Zm21.17,33.77L237.3,279a1.78,1.78,0,0,0-1.13,3.38l.11,0,11.16,3.36a1.78,1.78,0,1,0,1-3.41ZM44.16,186.89,33,183.54a1.78,1.78,0,0,0-1.14,3.37l.11,0,11.16,3.36a1.78,1.78,0,0,0,2.22-1.19A1.81,1.81,0,0,0,44.16,186.89Zm209.3,50.48a1.82,1.82,0,0,0-1.19-2.23l-11.16-3.35a1.78,1.78,0,0,0-1.13,3.37l.1,0,11.16,3.36A1.78,1.78,0,0,0,253.46,237.37Zm-94.17,30.8a1.78,1.78,0,1,0-3.56.24l.78,11.62a1.77,1.77,0,0,0,1.16,1.55,1.65,1.65,0,0,0,.73.11,1.77,1.77,0,0,0,1.66-1.9ZM202,263a1.78,1.78,0,0,0-3.56.24l.78,11.63a1.77,1.77,0,0,0,1.16,1.55,1.82,1.82,0,0,0,.74.11,1.79,1.79,0,0,0,1.66-1.9ZM154.2,191.49l-11.56-1.42a1.78,1.78,0,0,0-.84,3.44,2,2,0,0,0,.4.1L153.77,195a1.78,1.78,0,0,0,.43-3.54ZM98.77,181l-11.56-1.43a1.78,1.78,0,0,0-.84,3.44,1.38,1.38,0,0,0,.4.1l11.57,1.43a1.78,1.78,0,0,0,.43-3.54Zm27.44,104a1.78,1.78,0,0,0-3.21,1.56L128.09,297a1.76,1.76,0,0,0,1,.9,1.8,1.8,0,0,0,1.4-.07,1.77,1.77,0,0,0,.82-2.38ZM99.8,253.27a1.78,1.78,0,0,0-3.21,1.56l5.09,10.48a1.78,1.78,0,1,0,3.2-1.56ZM174,176.93a1.81,1.81,0,0,0,1.56-.16,1.78,1.78,0,0,0,.57-2.45l-6.14-9.9a1.78,1.78,0,1,0-3,1.88l6.14,9.9A1.83,1.83,0,0,0,174,176.93Z" style="fill:#FF84E8"></path><path d="M66.32,246.34a1.8,1.8,0,0,0-2.47.5l-6.43,9.72a1.78,1.78,0,0,0,.5,2.47,2.53,2.53,0,0,0,.37.18,1.77,1.77,0,0,0,2.1-.69l6.43-9.71A1.78,1.78,0,0,0,66.32,246.34Zm7.58-27.9a1.78,1.78,0,0,0-1.51-2l-11.53-1.65a1.78,1.78,0,0,0-.88,3.43,1.56,1.56,0,0,0,.37.1L71.89,220A1.77,1.77,0,0,0,73.9,218.44ZM159.58,201a1.77,1.77,0,0,0-1.66,1.9l.78,11.62a1.78,1.78,0,0,0,1.15,1.56,1.82,1.82,0,0,0,.74.1,1.77,1.77,0,0,0,1.66-1.89l-.78-11.63A1.77,1.77,0,0,0,159.58,201Zm24.71,12.63-10.66,4.69a1.78,1.78,0,0,0,.1,3.3,1.71,1.71,0,0,0,1.33,0l10.67-4.69a1.78,1.78,0,0,0-1.44-3.26Zm-8.54,87.51-10.26,5.53a1.79,1.79,0,0,0-.72,2.42,1.76,1.76,0,0,0,.95.82,1.81,1.81,0,0,0,1.47-.1l10.25-5.54a1.78,1.78,0,0,0-1.69-3.13Zm51.54-52.61L217,254.08a1.78,1.78,0,0,0,1.69,3.14L229,251.68a1.78,1.78,0,1,0-1.7-3.13Zm21.17,33.77L237.3,279a1.78,1.78,0,0,0-1.13,3.38l.11,0,11.16,3.36a1.78,1.78,0,1,0,1-3.41ZM44.16,186.89,33,183.54a1.78,1.78,0,0,0-1.14,3.37l.11,0,11.16,3.36a1.78,1.78,0,0,0,2.22-1.19A1.81,1.81,0,0,0,44.16,186.89Zm209.3,50.48a1.82,1.82,0,0,0-1.19-2.23l-11.16-3.35a1.78,1.78,0,0,0-1.13,3.37l.1,0,11.16,3.36A1.78,1.78,0,0,0,253.46,237.37Zm-94.17,30.8a1.78,1.78,0,1,0-3.56.24l.78,11.62a1.77,1.77,0,0,0,1.16,1.55,1.65,1.65,0,0,0,.73.11,1.77,1.77,0,0,0,1.66-1.9ZM202,263a1.78,1.78,0,0,0-3.56.24l.78,11.63a1.77,1.77,0,0,0,1.16,1.55,1.82,1.82,0,0,0,.74.11,1.79,1.79,0,0,0,1.66-1.9ZM154.2,191.49l-11.56-1.42a1.78,1.78,0,0,0-.84,3.44,2,2,0,0,0,.4.1L153.77,195a1.78,1.78,0,0,0,.43-3.54ZM98.77,181l-11.56-1.43a1.78,1.78,0,0,0-.84,3.44,1.38,1.38,0,0,0,.4.1l11.57,1.43a1.78,1.78,0,0,0,.43-3.54Zm27.44,104a1.78,1.78,0,0,0-3.21,1.56L128.09,297a1.76,1.76,0,0,0,1,.9,1.8,1.8,0,0,0,1.4-.07,1.77,1.77,0,0,0,.82-2.38ZM99.8,253.27a1.78,1.78,0,0,0-3.21,1.56l5.09,10.48a1.78,1.78,0,1,0,3.2-1.56ZM174,176.93a1.81,1.81,0,0,0,1.56-.16,1.78,1.78,0,0,0,.57-2.45l-6.14-9.9a1.78,1.78,0,1,0-3,1.88l6.14,9.9A1.83,1.83,0,0,0,174,176.93Z" style="fill:#fff;opacity:0.5"></path><path d="M66.63,184.12a1.78,1.78,0,0,0-2.34-.93l-10.68,4.66a1.76,1.76,0,0,0-.92,2.34,1.73,1.73,0,0,0,1,1,1.71,1.71,0,0,0,1.33,0l10.68-4.65A1.76,1.76,0,0,0,66.63,184.12Zm1,20.74L57,209.52a1.78,1.78,0,0,0,1.42,3.26l10.69-4.65a1.78,1.78,0,0,0-1.42-3.27Zm44.18,27.86-11-3.94a1.8,1.8,0,0,0-2.39,1.81,1.76,1.76,0,0,0,1.17,1.54h0l11,3.94A1.79,1.79,0,0,0,112.9,235,1.74,1.74,0,0,0,111.82,232.72Zm10,33.32-10.68,4.65a1.78,1.78,0,0,0-.93,2.34,1.8,1.8,0,0,0,2.35.93l10.68-4.66a1.78,1.78,0,0,0-1.42-3.26Zm69.81,10.86-10.52,5a1.78,1.78,0,0,0,.14,3.28,1.77,1.77,0,0,0,1.39-.06l10.52-5a1.78,1.78,0,1,0-1.53-3.22Zm-110-19.62-10.53,5a1.78,1.78,0,0,0,1.53,3.22l10.53-5a1.78,1.78,0,0,0-1.53-3.22Zm120.89-52.36a1.79,1.79,0,0,0,1.38-.06l10.53-5a1.78,1.78,0,0,0-1.53-3.22l-10.53,5a1.78,1.78,0,0,0,.15,3.28Zm-31.76,91.46-6.81-9.44A1.78,1.78,0,0,0,161,289l6.82,9.45a1.74,1.74,0,0,0,.82.63,1.79,1.79,0,0,0,2.07-2.72ZM128.51,178.09a1.78,1.78,0,0,0,2.07-2.71l-6.81-9.45a1.78,1.78,0,0,0-2.9,2.08l6.82,9.45A1.74,1.74,0,0,0,128.51,178.09Zm133.1,102.4L254.8,271a1.78,1.78,0,0,0-2.9,2.08l6.82,9.46a1.86,1.86,0,0,0,.83.62,1.78,1.78,0,0,0,2.06-2.71ZM213,242.26l-6.82-9.45a1.78,1.78,0,1,0-2.89,2.08l6.82,9.45a1.77,1.77,0,0,0,2.49.4A1.77,1.77,0,0,0,213,242.26ZM169.3,174.38,159,168.91a1.78,1.78,0,1,0-1.67,3.14l10.29,5.47.22.1a1.78,1.78,0,0,0,1.45-3.24Z" style="fill:#FF84E8"></path><path d="M66.63,184.12a1.78,1.78,0,0,0-2.34-.93l-10.68,4.66a1.76,1.76,0,0,0-.92,2.34,1.73,1.73,0,0,0,1,1,1.71,1.71,0,0,0,1.33,0l10.68-4.65A1.76,1.76,0,0,0,66.63,184.12Zm1,20.74L57,209.52a1.78,1.78,0,0,0,1.42,3.26l10.69-4.65a1.78,1.78,0,0,0-1.42-3.27Zm44.18,27.86-11-3.94a1.8,1.8,0,0,0-2.39,1.81,1.76,1.76,0,0,0,1.17,1.54h0l11,3.94A1.79,1.79,0,0,0,112.9,235,1.74,1.74,0,0,0,111.82,232.72Zm10,33.32-10.68,4.65a1.78,1.78,0,0,0-.93,2.34,1.8,1.8,0,0,0,2.35.93l10.68-4.66a1.78,1.78,0,0,0-1.42-3.26Zm69.81,10.86-10.52,5a1.78,1.78,0,0,0,.14,3.28,1.77,1.77,0,0,0,1.39-.06l10.52-5a1.78,1.78,0,1,0-1.53-3.22Zm-110-19.62-10.53,5a1.78,1.78,0,0,0,1.53,3.22l10.53-5a1.78,1.78,0,0,0-1.53-3.22Zm120.89-52.36a1.79,1.79,0,0,0,1.38-.06l10.53-5a1.78,1.78,0,0,0-1.53-3.22l-10.53,5a1.78,1.78,0,0,0,.15,3.28Zm-31.76,91.46-6.81-9.44A1.78,1.78,0,0,0,161,289l6.82,9.45a1.74,1.74,0,0,0,.82.63,1.79,1.79,0,0,0,2.07-2.72ZM128.51,178.09a1.78,1.78,0,0,0,2.07-2.71l-6.81-9.45a1.78,1.78,0,0,0-2.9,2.08l6.82,9.45A1.74,1.74,0,0,0,128.51,178.09Zm133.1,102.4L254.8,271a1.78,1.78,0,0,0-2.9,2.08l6.82,9.46a1.86,1.86,0,0,0,.83.62,1.78,1.78,0,0,0,2.06-2.71ZM213,242.26l-6.82-9.45a1.78,1.78,0,1,0-2.89,2.08l6.82,9.45a1.77,1.77,0,0,0,2.49.4A1.77,1.77,0,0,0,213,242.26ZM169.3,174.38,159,168.91a1.78,1.78,0,1,0-1.67,3.14l10.29,5.47.22.1a1.78,1.78,0,0,0,1.45-3.24Z" style="opacity:0.30000000000000004"></path><path d="M141.38,168.67l-7.75-8.7a1.78,1.78,0,1,0-2.66,2.37l7.75,8.7a1.87,1.87,0,0,0,.71.48,1.78,1.78,0,0,0,1.95-2.85ZM95.23,207.56A1.78,1.78,0,0,0,97,204.51l-9-7.38a1.78,1.78,0,0,0-2.26,2.76l9,7.38A1.86,1.86,0,0,0,95.23,207.56Zm15.12,73.54a1.78,1.78,0,0,0-2.43.64l-5.92,10a1.78,1.78,0,0,0,.63,2.44,1.55,1.55,0,0,0,.29.14,1.78,1.78,0,0,0,2.15-.77l5.92-10A1.78,1.78,0,0,0,110.35,281.1Zm97.79-25.35-10-6a1.78,1.78,0,1,0-1.84,3.05l10,6a2.1,2.1,0,0,0,.3.15,1.78,1.78,0,0,0,1.54-3.2Zm-62.35-4a1.79,1.79,0,0,0-3.36,1.21l3.94,11a1.78,1.78,0,1,0,3.35-1.2Zm9.77,40.95a1.8,1.8,0,0,0-2.48-.47l-9.64,6.54a1.79,1.79,0,0,0-.48,2.48,1.81,1.81,0,0,0,.86.67,1.78,1.78,0,0,0,1.62-.2l9.64-6.54A1.79,1.79,0,0,0,155.56,292.71ZM42.89,198.34a1.78,1.78,0,0,0-2.47-.47l-9.64,6.54a1.78,1.78,0,0,0-.47,2.48,1.69,1.69,0,0,0,.85.67,1.78,1.78,0,0,0,1.62-.2l9.64-6.54A1.79,1.79,0,0,0,42.89,198.34Zm19.74,38.23a1.8,1.8,0,0,0-2.48-.47l-9.64,6.54a1.78,1.78,0,0,0-.47,2.48,1.74,1.74,0,0,0,.85.67,1.78,1.78,0,0,0,1.62-.2l9.64-6.54A1.79,1.79,0,0,0,62.63,236.57ZM196,228.22a1.78,1.78,0,0,0-2.47-.48l-9.64,6.55a1.77,1.77,0,0,0-.47,2.48,1.72,1.72,0,0,0,.85.66,1.77,1.77,0,0,0,1.62-.19l9.64-6.55A1.76,1.76,0,0,0,196,228.22ZM214.73,302l-10-6a1.78,1.78,0,1,0-1.84,3.05l10,6a1.4,1.4,0,0,0,.3.15,1.78,1.78,0,0,0,1.53-3.2ZM240,300a1.79,1.79,0,0,0-1.49-2L227,296.22a1.78,1.78,0,0,0-2,1.48,1.8,1.8,0,0,0,1.14,1.95,2.25,2.25,0,0,0,.35.09l11.51,1.79A1.78,1.78,0,0,0,240,300Zm-.13-68a1.82,1.82,0,0,0-1.49-2l-11.51-1.79a1.78,1.78,0,0,0-.9,3.43,2,2,0,0,0,.35.09l11.51,1.79A1.79,1.79,0,0,0,239.82,232.05Zm-46.93-53a1.78,1.78,0,0,0-2.52-.09l-8.53,7.93a1.78,1.78,0,0,0-.09,2.52,1.78,1.78,0,0,0,2.52.09l8.53-7.93A1.78,1.78,0,0,0,192.89,179.07ZM89.52,166.33a1.78,1.78,0,0,0-1.56-2L76.38,163a1.78,1.78,0,0,0-.82,3.44,1.89,1.89,0,0,0,.41.1l11.58,1.35A1.78,1.78,0,0,0,89.52,166.33Zm2,74-10-6a1.78,1.78,0,1,0-1.84,3l10,6a1.78,1.78,0,1,0,1.84-3Z" style="fill:#fafafa"></path><path d="M48.4,218.87a1.79,1.79,0,0,0-2.47.51l-6.43,9.71a1.79,1.79,0,0,0,3,2l6.43-9.72A1.79,1.79,0,0,0,48.4,218.87Zm131.48,45.35a1.78,1.78,0,0,0-2.5.33l-7.07,9.27a1.8,1.8,0,0,0,.8,2.75,1.79,1.79,0,0,0,2-.59l7.06-9.26A1.78,1.78,0,0,0,179.88,264.22ZM96.12,217,84.7,214.7a1.78,1.78,0,0,0-1,3.42l.27.08,11.42,2.3a1.78,1.78,0,0,0,.7-3.5ZM237,256a1.78,1.78,0,1,0-3.2,1.56L238.9,268a1.79,1.79,0,0,0,2.38.82,1.78,1.78,0,0,0,.83-2.38ZM90.44,268.32a1.79,1.79,0,0,0-3.57.1l.34,11.65a1.77,1.77,0,0,0,1.16,1.62,1.69,1.69,0,0,0,.67.11A1.78,1.78,0,0,0,90.77,280Zm96.83,26.62a1.78,1.78,0,0,0-3.2,1.55L189.15,307a1.76,1.76,0,0,0,1,.89,1.73,1.73,0,0,0,1.39-.07,1.78,1.78,0,0,0,.83-2.38Zm25.15-62.72a1.78,1.78,0,0,0,2.22-2.45l-5.09-10.48a1.78,1.78,0,0,0-3.21,1.55l5.09,10.49A1.76,1.76,0,0,0,212.42,232.22Zm4.86,42.85a1.78,1.78,0,1,0-3.21,1.55l5.09,10.49a1.74,1.74,0,0,0,1,.89,1.8,1.8,0,0,0,1.4-.07,1.78,1.78,0,0,0,.82-2.38Zm43-14.4-5.08-10.49a1.78,1.78,0,0,0-3.21,1.56l5.09,10.48a1.78,1.78,0,1,0,3.2-1.55Zm-29.83-48.29L219,214.31a1.79,1.79,0,0,0-1.47,2.06,1.76,1.76,0,0,0,1.15,1.37,1.74,1.74,0,0,0,.91.09l11.49-1.94a1.78,1.78,0,0,0-.59-3.51Zm-41.87-15.9-10.79,4.41a1.78,1.78,0,0,0-1,2.32,1.78,1.78,0,0,0,2.32,1l10.79-4.41a1.78,1.78,0,1,0-1.35-3.3Zm-45.28,72.33a1.8,1.8,0,0,0-2.52-.18L132,276.24a1.78,1.78,0,0,0-.19,2.51,1.9,1.9,0,0,0,.73.51,1.81,1.81,0,0,0,1.79-.33l8.82-7.6A1.79,1.79,0,0,0,143.31,268.81ZM134.84,205a1.78,1.78,0,0,0,1.54-3.19l-10-6a1.79,1.79,0,0,0-1.84,3.06l10,6A1.35,1.35,0,0,0,134.84,205ZM64.76,169.56a1.79,1.79,0,0,0-2-1.55l-11.55,1.48a1.8,1.8,0,0,0-1.55,2,1.77,1.77,0,0,0,1.16,1.44,1.67,1.67,0,0,0,.84.1l11.55-1.48A1.79,1.79,0,0,0,64.76,169.56Zm64,73.31-10.35,5.36a1.77,1.77,0,0,0,.2,3.25,1.75,1.75,0,0,0,1.43-.09L130.41,246a1.78,1.78,0,1,0-1.63-3.17ZM114,201.77a1.78,1.78,0,0,0,.83-2.38l-5.09-10.49a1.78,1.78,0,0,0-3.21,1.56L111.61,201a1.83,1.83,0,0,0,1,.89A1.77,1.77,0,0,0,114,201.77Zm-8.8-33.63a1.8,1.8,0,0,0,1.4-.07,1.78,1.78,0,0,0,.82-2.38l-5.08-10.48a1.78,1.78,0,0,0-3.21,1.56l5.09,10.48A1.77,1.77,0,0,0,105.19,168.14Z" style="fill:#FF84E8"></path></g></g></g></svg>